font.ufo
<glyph name="exclam" format="2">
  <advance width="306"/>
  <unicode hex="0021"/>
  <outline>
    <contour>
      <point x="89" y="231" type="line"/>
      <point x="217" y="231" type="line"/>
      <point x="217" y="730" type="line"/>
      <point x="89" y="730" type="line"/>
    </contour>
    <contour>
      <point x="78" y="0" type="line"/>
      <point x="228" y="0" type="line"/>
      <point x="228" y="140" type="line"/>
      <point x="78" y="140" type="line"/>
    </contour>
  </outline>
</glyph>
<glyph name="ampersand" format="2">
  <advance width="708"/>
  <unicode hex="0026"/>
  <outline>
    <contour>
      <point x="535" y="0" type="line"/>
      <point x="678" y="0" type="line"/>
      <point x="319" y="383" type="line" smooth="yes"/>
      <point x="265" y="442"/>
      <point x="241" y="483"/>
      <point x="241" y="536" type="curve" smooth="yes"/>
      <point x="241" y="598"/>
      <point x="268" y="632"/>
      <point x="355" y="632" type="curve" smooth="yes"/>
      <point x="393" y="632"/>
      <point x="475" y="626"/>
      <point x="516" y="622" type="curve"/>
      <point x="516" y="728" type="line"/>
      <point x="474" y="733"/>
      <point x="417" y="739"/>
      <point x="371" y="739" type="curve" smooth="yes"/>
      <point x="197" y="739"/>
      <point x="123" y="667"/>
      <point x="123" y="541" type="curve" smooth="yes"/>
      <point x="123" y="463"/>
      <point x="152" y="411"/>
      <point x="244" y="312" type="curve" smooth="yes"/>
    </contour>
    <contour>
      <point x="291" y="-19" type="curve" smooth="yes"/>
      <point x="489" y="-19"/>
      <point x="627" y="140"/>
      <point x="627" y="414" type="curve"/>
      <point x="516" y="414" type="line"/>
      <point x="516" y="191"/>
      <point x="423" y="86"/>
      <point x="295" y="86" type="curve" smooth="yes"/>
      <point x="206" y="86"/>
      <point x="146" y="136"/>
      <point x="146" y="220" type="curve" smooth="yes"/>
      <point x="146" y="284"/>
      <point x="180" y="338"/>
      <point x="229" y="365" type="curve"/>
      <point x="172" y="440" type="line"/>
      <point x="88" y="397"/>
      <point x="28" y="320"/>
      <point x="28" y="223" type="curve" smooth="yes"/>
      <point x="28" y="209" type="line" smooth="yes"/>
      <point x="28" y="80"/>
      <point x="133" y="-19"/>
    </contour>
    <contour>
      <point x="410" y="397" type="line"/>
      <point x="683" y="397" type="line"/>
      <point x="683" y="492" type="line"/>
      <point x="410" y="492" type="line"/>
    </contour>
  </outline>
</glyph>
<glyph name="plus" format="2">
  <advance width="593"/>
  <unicode hex="002B"/>
  <outline>
    <contour>
      <point x="241" y="100" type="line"/>
      <point x="351" y="100" type="line"/>
      <point x="351" y="588" type="line"/>
      <point x="241" y="588" type="line"/>
    </contour>
    <contour>
      <point x="58" y="293" type="line"/>
      <point x="534" y="293" type="line"/>
      <point x="534" y="395" type="line"/>
      <point x="58" y="395" type="line"/>
    </contour>
  </outline>
</glyph>
<glyph name="comma" format="2">
  <advance width="267"/>
  <unicode hex="002C"/>
  <outline>
    <contour>
      <point x="116" y="-164" type="line"/>
      <point x="221" y="115" type="line"/>
      <point x="116" y="154" type="line"/>
      <point x="17" y="-126" type="line"/>
    </contour>
  </outline>
</glyph>
<glyph name="hyphen" format="2">
  <advance width="506"/>
  <unicode hex="002D"/>
  <outline>
    <contour>
      <point x="56" y="225" type="line"/>
      <point x="451" y="225" type="line"/>
      <point x="451" y="335" type="line"/>
      <point x="56" y="335" type="line"/>
    </contour>
  </outline>
</glyph>
<glyph name="zero" format="2">
  <advance width="752"/>
  <unicode hex="0030"/>
  <outline>
    <contour>
      <point x="377" y="-19" type="curve" smooth="yes"/>
      <point x="601" y="-19"/>
      <point x="687" y="146"/>
      <point x="687" y="337" type="curve" smooth="yes"/>
      <point x="687" y="393" type="line" smooth="yes"/>
      <point x="687" y="593"/>
      <point x="591" y="751"/>
      <point x="377" y="751" type="curve" smooth="yes"/>
      <point x="161" y="751"/>
      <point x="65" y="593"/>
      <point x="65" y="393" type="curve" smooth="yes"/>
      <point x="65" y="337" type="line" smooth="yes"/>
      <point x="65" y="146"/>
      <point x="151" y="-19"/>
    </contour>
    <contour>
      <point x="377" y="99" type="curve" smooth="yes"/>
      <point x="251" y="99"/>
      <point x="194" y="181"/>
      <point x="194" y="366" type="curve" smooth="yes"/>
      <point x="194" y="556"/>
      <point x="253" y="633"/>
      <point x="377" y="633" type="curve" smooth="yes"/>
      <point x="499" y="633"/>
      <point x="558" y="556"/>
      <point x="558" y="364" type="curve" smooth="yes"/>
      <point x="558" y="181"/>
      <point x="501" y="99"/>
    </contour>
  </outline>
</glyph>
<glyph name="two" format="2">
  <advance width="624"/>
  <unicode hex="0032"/>
  <outline>
    <contour>
      <point x="68" y="0" type="line"/>
      <point x="572" y="0" type="line"/>
      <point x="572" y="109" type="line"/>
      <point x="162" y="109" type="line"/>
      <point x="194" y="69" type="line"/>
      <point x="194" y="142" type="line" smooth="yes"/>
      <point x="194" y="182"/>
      <point x="210" y="202"/>
      <point x="262" y="225" type="curve" smooth="yes"/>
      <point x="389" y="282" type="line" smooth="yes"/>
      <point x="503" y="333"/>
      <point x="567" y="401"/>
      <point x="567" y="510" type="curve" smooth="yes"/>
      <point x="567" y="523" type="line" smooth="yes"/>
      <point x="567" y="646"/>
      <point x="482" y="751"/>
      <point x="313" y="751" type="curve" smooth="yes"/>
      <point x="143" y="751"/>
      <point x="60" y="645"/>
      <point x="60" y="513" type="curve"/>
      <point x="184" y="513" type="line"/>
      <point x="184" y="594"/>
      <point x="232" y="642"/>
      <point x="313" y="642" type="curve" smooth="yes"/>
      <point x="396" y="642"/>
      <point x="443" y="594"/>
      <point x="443" y="517" type="curve" smooth="yes"/>
      <point x="443" y="449"/>
      <point x="406" y="407"/>
      <point x="344" y="379" type="curve" smooth="yes"/>
      <point x="216" y="322" type="line" smooth="yes"/>
      <point x="106" y="273"/>
      <point x="68" y="224"/>
      <point x="68" y="134" type="curve" smooth="yes"/>
    </contour>
  </outline>
</glyph>
<glyph name="six" format="2">
  <advance width="672"/>
  <unicode hex="0036"/>
  <outline>
    <contour>
      <point x="354" y="-21" type="curve" smooth="yes"/>
      <point x="526" y="-21"/>
      <point x="627" y="84"/>
      <point x="627" y="234" type="curve" smooth="yes"/>
      <point x="627" y="378"/>
      <point x="537" y="478"/>
      <point x="382" y="478" type="curve" smooth="yes"/>
      <point x="247" y="478"/>
      <point x="153" y="401"/>
      <point x="151" y="248" type="curve"/>
      <point x="181" y="306" type="line"/>
      <point x="181" y="366" type="line" smooth="yes"/>
      <point x="181" y="534"/>
      <point x="236" y="628"/>
      <point x="409" y="628" type="curve" smooth="yes"/>
      <point x="462" y="628"/>
      <point x="503" y="625"/>
      <point x="547" y="620" type="curve"/>
      <point x="547" y="728" type="line"/>
      <point x="503" y="733"/>
      <point x="464" y="736"/>
      <point x="413" y="736" type="curve" smooth="yes"/>
      <point x="185" y="736"/>
      <point x="64" y="609"/>
      <point x="64" y="373" type="curve" smooth="yes"/>
      <point x="64" y="328" type="line" smooth="yes"/>
      <point x="64" y="139"/>
      <point x="138" y="-21"/>
    </contour>
    <contour>
      <point x="351" y="88" type="curve" smooth="yes"/>
      <point x="246" y="88"/>
      <point x="195" y="152"/>
      <point x="195" y="232" type="curve" smooth="yes"/>
      <point x="195" y="327"/>
      <point x="266" y="377"/>
      <point x="357" y="377" type="curve" smooth="yes"/>
      <point x="452" y="377"/>
      <point x="504" y="318"/>
      <point x="504" y="233" type="curve" smooth="yes"/>
      <point x="504" y="147"/>
      <point x="451" y="88"/>
    </contour>
  </outline>
</glyph>
<glyph name="seven" format="2">
  <advance width="589"/>
  <unicode hex="0037"/>
  <outline>
    <contour>
      <point x="144" y="0" type="line"/>
      <point x="278" y="0" type="line"/>
      <point x="560" y="620" type="line"/>
      <point x="560" y="730" type="line"/>
      <point x="41" y="730" type="line"/>
      <point x="41" y="624" type="line"/>
      <point x="419" y="624" type="line"/>
      <point x="428" y="612" type="line"/>
    </contour>
    <contour>
      <point x="41" y="507" type="line"/>
      <point x="145" y="507" type="line"/>
      <point x="145" y="730" type="line"/>
      <point x="41" y="730" type="line"/>
    </contour>
  </outline>
</glyph>
<glyph name="eight" format="2">
  <advance width="651"/>
  <unicode hex="0038"/>
  <outline>
    <contour>
      <point x="325" y="-19" type="curve" smooth="yes"/>
      <point x="491" y="-19"/>
      <point x="605" y="65"/>
      <point x="605" y="203" type="curve" smooth="yes"/>
      <point x="605" y="292"/>
      <point x="553" y="356"/>
      <point x="477" y="384" type="curve"/>
      <point x="477" y="396" type="line"/>
      <point x="537" y="421"/>
      <point x="581" y="472"/>
      <point x="581" y="550" type="curve" smooth="yes"/>
      <point x="581" y="679"/>
      <point x="469" y="749"/>
      <point x="325" y="749" type="curve" smooth="yes"/>
      <point x="182" y="749"/>
      <point x="69" y="679"/>
      <point x="69" y="550" type="curve" smooth="yes"/>
      <point x="69" y="472"/>
      <point x="114" y="421"/>
      <point x="173" y="396" type="curve"/>
      <point x="173" y="384" type="line"/>
      <point x="98" y="356"/>
      <point x="46" y="292"/>
      <point x="46" y="203" type="curve" smooth="yes"/>
      <point x="46" y="66"/>
      <point x="159" y="-19"/>
    </contour>
    <contour>
      <point x="325" y="87" type="curve" smooth="yes"/>
      <point x="229" y="87"/>
      <point x="170" y="134"/>
      <point x="170" y="214" type="curve" smooth="yes"/>
      <point x="170" y="294"/>
      <point x="229" y="341"/>
      <point x="325" y="341" type="curve" smooth="yes"/>
      <point x="422" y="341"/>
      <point x="481" y="294"/>
      <point x="481" y="214" type="curve" smooth="yes"/>
      <point x="481" y="134"/>
      <point x="421" y="87"/>
    </contour>
    <contour>
      <point x="325" y="437" type="curve" smooth="yes"/>
      <point x="245" y="437"/>
      <point x="193" y="471"/>
      <point x="193" y="541" type="curve" smooth="yes"/>
      <point x="193" y="609"/>
      <point x="244" y="643"/>
      <point x="325" y="643" type="curve" smooth="yes"/>
      <point x="405" y="643"/>
      <point x="457" y="610"/>
      <point x="457" y="541" type="curve" smooth="yes"/>
      <point x="457" y="471"/>
      <point x="406" y="437"/>
    </contour>
  </outline>
</glyph>
<glyph name="equal" format="2">
  <advance width="590"/>
  <unicode hex="003D"/>
  <outline>
    <contour>
      <point x="58" y="377" type="line"/>
      <point x="532" y="377" type="line"/>
      <point x="532" y="478" type="line"/>
      <point x="58" y="478" type="line"/>
    </contour>
    <contour>
      <point x="58" y="182" type="line"/>
      <point x="532" y="182" type="line"/>
      <point x="532" y="283" type="line"/>
      <point x="58" y="283" type="line"/>
    </contour>
  </outline>
</glyph>
<glyph name="greater" format="2">
  <advance width="593"/>
  <unicode hex="003E"/>
  <outline>
    <contour>
      <point x="73" y="101" type="line"/>
      <point x="520" y="247" type="line"/>
      <point x="520" y="349" type="line"/>
      <point x="73" y="207" type="line"/>
    </contour>
    <contour>
      <point x="520" y="308" type="line"/>
      <point x="520" y="410" type="line"/>
      <point x="73" y="556" type="line"/>
      <point x="73" y="450" type="line"/>
    </contour>
    <contour>
      <point x="429" y="289" type="line"/>
      <point x="459" y="289" type="line"/>
      <point x="459" y="371" type="line"/>
      <point x="429" y="371" type="line"/>
    </contour>
  </outline>
</glyph>
<glyph name="question" format="2">
  <advance width="557"/>
  <unicode hex="003F"/>
  <outline>
    <contour>
      <point x="191" y="231" type="line"/>
      <point x="316" y="231" type="line"/>
      <point x="318" y="363" type="line"/>
      <point x="267" y="313" type="line"/>
      <point x="428" y="315"/>
      <point x="516" y="404"/>
      <point x="516" y="524" type="curve" smooth="yes"/>
      <point x="516" y="536" type="line" smooth="yes"/>
      <point x="516" y="656"/>
      <point x="426" y="751"/>
      <point x="281" y="751" type="curve" smooth="yes"/>
      <point x="120" y="751"/>
      <point x="34" y="644"/>
      <point x="34" y="520" type="curve"/>
      <point x="154" y="520" type="line"/>
      <point x="154" y="589"/>
      <point x="201" y="642"/>
      <point x="279" y="642" type="curve" smooth="yes"/>
      <point x="348" y="642"/>
      <point x="395" y="597"/>
      <point x="395" y="527" type="curve" smooth="yes"/>
      <point x="395" y="461"/>
      <point x="355" y="411"/>
      <point x="271" y="411" type="curve" smooth="yes"/>
      <point x="191" y="411" type="line"/>
    </contour>
    <contour>
      <point x="180" y="0" type="line"/>
      <point x="327" y="0" type="line"/>
      <point x="327" y="140" type="line"/>
      <point x="180" y="140" type="line"/>
    </contour>
  </outline>
</glyph>
<glyph name="at" format="2">
  <advance width="1124"/>
  <unicode hex="0040"/>
  <outline>
    <contour>
      <point x="566" y="-244" type="curve" smooth="yes"/>
      <point x="608" y="-244"/>
      <point x="654" y="-239"/>
      <point x="693" y="-231" type="curve"/>
      <point x="693" y="-131" type="line"/>
      <point x="654" y="-140"/>
      <point x="608" y="-145"/>
      <point x="566" y="-145" type="curve" smooth="yes"/>
      <point x="328" y="-145"/>
      <point x="162" y="10"/>
      <point x="162" y="250" type="curve" smooth="yes"/>
      <point x="162" y="486"/>
      <point x="319" y="653"/>
      <point x="572" y="653" type="curve" smooth="yes"/>
      <point x="781" y="653"/>
      <point x="960" y="540"/>
      <point x="960" y="302" type="curve" smooth="yes"/>
      <point x="960" y="177"/>
      <point x="911" y="99"/>
      <point x="849" y="99" type="curve" smooth="yes"/>
      <point x="812" y="99"/>
      <point x="788" y="122"/>
      <point x="788" y="171" type="curve" smooth="yes"/>
      <point x="788" y="474" type="line"/>
      <point x="693" y="474" type="line"/>
      <point x="693" y="283" type="line"/>
      <point x="722" y="283" type="line"/>
      <point x="716" y="412"/>
      <point x="634" y="490"/>
      <point x="521" y="490" type="curve" smooth="yes"/>
      <point x="398" y="490"/>
      <point x="304" y="398"/>
      <point x="304" y="260" type="curve" smooth="yes"/>
      <point x="304" y="244" type="line" smooth="yes"/>
      <point x="304" y="107"/>
      <point x="397" y="10"/>
      <point x="521" y="10" type="curve" smooth="yes"/>
      <point x="627" y="10"/>
      <point x="711" y="81"/>
      <point x="717" y="224" type="curve"/>
      <point x="686" y="224" type="line"/>
      <point x="686" y="166" type="line" smooth="yes"/>
      <point x="686" y="67"/>
      <point x="747" y="3"/>
      <point x="845" y="3" type="curve" smooth="yes"/>
      <point x="979" y="3"/>
      <point x="1064" y="131"/>
      <point x="1064" y="306" type="curve" smooth="yes"/>
      <point x="1064" y="594"/>
      <point x="839" y="750"/>
      <point x="571" y="750" type="curve" smooth="yes"/>
      <point x="261" y="750"/>
      <point x="58" y="541"/>
      <point x="58" y="250" type="curve" smooth="yes"/>
      <point x="58" y="-49"/>
      <point x="273" y="-244"/>
    </contour>
    <contour>
      <point x="544" y="105" type="curve" smooth="yes"/>
      <point x="465" y="105"/>
      <point x="414" y="166"/>
      <point x="414" y="252" type="curve" smooth="yes"/>
      <point x="414" y="338"/>
      <point x="464" y="395"/>
      <point x="544" y="395" type="curve" smooth="yes"/>
      <point x="613" y="395"/>
      <point x="675" y="351"/>
      <point x="675" y="269" type="curve" smooth="yes"/>
      <point x="675" y="245" type="line" smooth="yes"/>
      <point x="675" y="155"/>
      <point x="615" y="105"/>
    </contour>
  </outline>
</glyph>
<glyph name="A" format="2">
  <advance width="768"/>
  <unicode hex="0041"/>
  <anchor x="726" y="10" name="ogonek"/>
  <anchor x="380" y="730" name="top"/>
  <outline>
    <contour>
      <point x="21" y="0" type="line"/>
      <point x="150" y="0" type="line"/>
      <point x="368" y="643" type="line"/>
      <point x="316" y="620" type="line"/>
      <point x="439" y="620" type="line"/>
      <point x="389" y="643" type="line"/>
      <point x="614" y="0" type="line"/>
      <point x="747" y="0" type="line"/>
      <point x="486" y="730" type="line"/>
      <point x="274" y="730" type="line"/>
    </contour>
    <contour>
      <point x="190" y="201" type="line"/>
      <point x="574" y="201" type="line"/>
      <point x="533" y="311" type="line"/>
      <point x="231" y="311" type="line"/>
    </contour>
  </outline>
</glyph>
<glyph name="C" format="2">
  <advance width="797"/>
  <unicode hex="0043"/>
  <anchor x="417" y="0" name="bottom"/>
  <anchor x="415" y="730" name="top"/>
  <outline>
    <contour>
      <point x="420" y="-19" type="curve" smooth="yes"/>
      <point x="627" y="-19"/>
      <point x="746" y="108"/>
      <point x="766" y="263" type="curve"/>
      <point x="636" y="263" type="line"/>
      <point x="619" y="159"/>
      <point x="534" y="101"/>
      <point x="420" y="101" type="curve" smooth="yes"/>
      <point x="263" y="101"/>
      <point x="180" y="218"/>
      <point x="180" y="366" type="curve" smooth="yes"/>
      <point x="180" y="518"/>
      <point x="261" y="631"/>
      <point x="415" y="631" type="curve" smooth="yes"/>
      <point x="524" y="631"/>
      <point x="607" y="576"/>
      <point x="623" y="469" type="curve"/>
      <point x="753" y="469" type="line"/>
      <point x="735" y="638"/>
      <point x="611" y="751"/>
      <point x="415" y="751" type="curve" smooth="yes"/>
      <point x="159" y="751"/>
      <point x="50" y="556"/>
      <point x="50" y="378" type="curve" smooth="yes"/>
      <point x="50" y="356" type="line" smooth="yes"/>
      <point x="50" y="192"/>
      <point x="154" y="-19"/>
    </contour>
  </outline>
</glyph>
<glyph name="E" format="2">
  <advance width="597"/>
  <unicode hex="0045"/>
  <anchor x="317" y="0" name="bottom"/>
  <anchor x="538" y="10" name="ogonek"/>
  <anchor x="316" y="730" name="top"/>
  <outline>
    <contour>
      <point x="95" y="0" type="line"/>
      <point x="221" y="0" type="line"/>
      <point x="221" y="730" type="line"/>
      <point x="95" y="730" type="line"/>
    </contour>
    <contour>
      <point x="201" y="0" type="line"/>
      <point x="539" y="0" type="line"/>
      <point x="539" y="110" type="line"/>
      <point x="201" y="110" type="line"/>
    </contour>
    <contour>
      <point x="201" y="316" type="line"/>
      <point x="512" y="316" type="line"/>
      <point x="512" y="426" type="line"/>
      <point x="201" y="426" type="line"/>
    </contour>
    <contour>
      <point x="201" y="620" type="line"/>
      <point x="531" y="620" type="line"/>
      <point x="531" y="730" type="line"/>
      <point x="201" y="730" type="line"/>
    </contour>
  </outline>
</glyph>
<glyph name="F" format="2">
  <advance width="560"/>
  <unicode hex="0046"/>
  <outline>
    <contour>
      <point x="95" y="0" type="line"/>
      <point x="224" y="0" type="line"/>
      <point x="224" y="730" type="line"/>
      <point x="95" y="730" type="line"/>
    </contour>
    <contour>
      <point x="204" y="310" type="line"/>
      <point x="502" y="311" type="line"/>
      <point x="502" y="421" type="line"/>
      <point x="204" y="421" type="line"/>
    </contour>
    <contour>
      <point x="204" y="620" type="line"/>
      <point x="517" y="620" type="line"/>
      <point x="517" y="730" type="line"/>
      <point x="204" y="730" type="line"/>
    </contour>
  </outline>
</glyph>
<glyph name="G" format="2">
  <advance width="832"/>
  <unicode hex="0047"/>
  <anchor x="432" y="0" name="bottom"/>
  <anchor x="412" y="730" name="top"/>
  <outline>
    <contour>
      <point x="430" y="-19" type="curve" smooth="yes"/>
      <point x="568" y="-19"/>
      <point x="678" y="34"/>
      <point x="741" y="127" type="curve"/>
      <point x="741" y="293" type="line"/>
      <point x="622" y="293" type="line"/>
      <point x="622" y="96" type="line"/>
      <point x="650" y="212" type="line"/>
      <point x="613" y="144"/>
      <point x="533" y="98"/>
      <point x="430" y="98" type="curve" smooth="yes"/>
      <point x="280" y="98"/>
      <point x="180" y="195"/>
      <point x="180" y="369" type="curve" smooth="yes"/>
      <point x="180" y="526"/>
      <point x="273" y="631"/>
      <point x="414" y="631" type="curve" smooth="yes"/>
      <point x="519" y="631"/>
      <point x="608" y="574"/>
      <point x="621" y="471" type="curve"/>
      <point x="751" y="471" type="line"/>
      <point x="736" y="636"/>
      <point x="603" y="751"/>
      <point x="414" y="751" type="curve" smooth="yes"/>
      <point x="181" y="751"/>
      <point x="50" y="567"/>
      <point x="50" y="381" type="curve" smooth="yes"/>
      <point x="50" y="359" type="line" smooth="yes"/>
      <point x="50" y="158"/>
      <point x="187" y="-19"/>
    </contour>
    <contour>
      <point x="406" y="267" type="line"/>
      <point x="803" y="267" type="line"/>
      <point x="803" y="366" type="line"/>
      <point x="406" y="366" type="line"/>
    </contour>
  </outline>
</glyph>
<glyph name="J" format="2">
  <advance width="641"/>
  <unicode hex="004A"/>
  <anchor x="324" y="0" name="bottom"/>
  <anchor x="343" y="730" name="top"/>
  <outline>
    <contour>
      <point x="297" y="-19" type="curve" smooth="yes"/>
      <point x="452" y="-19"/>
      <point x="559" y="74"/>
      <point x="559" y="249" type="curve" smooth="yes"/>
      <point x="559" y="636" type="line"/>
      <point x="430" y="636" type="line"/>
      <point x="430" y="235" type="line" smooth="yes"/>
      <point x="430" y="151"/>
      <point x="376" y="101"/>
      <point x="297" y="101" type="curve" smooth="yes"/>
      <point x="218" y="101"/>
      <point x="164" y="151"/>
      <point x="164" y="235" type="curve" smooth="yes"/>
      <point x="164" y="279" type="line"/>
      <point x="36" y="279" type="line"/>
      <point x="36" y="249" type="line" smooth="yes"/>
      <point x="36" y="74"/>
      <point x="143" y="-19"/>
    </contour>
    <contour>
      <point x="127" y="616" type="line"/>
      <point x="559" y="616" type="line"/>
      <point x="559" y="730" type="line"/>
      <point x="127" y="730" type="line"/>
    </contour>
  </outline>
</glyph>
<glyph name="M" format="2">
  <advance width="944"/>
  <unicode hex="004D"/>
  <guideline x="16" y="569" angle="0.0"/>
  <outline>
    <contour>
      <point x="95" y="0" type="line"/>
      <point x="213" y="0" type="line"/>
      <point x="213" y="623" type="line"/>
      <point x="197" y="621" type="line"/>
      <point x="398" y="150" type="line"/>
      <point x="535" y="150" type="line"/>
      <point x="736" y="621" type="line"/>
      <point x="721" y="623" type="line"/>
      <point x="721" y="0" type="line"/>
      <point x="849" y="0" type="line"/>
      <point x="849" y="730" type="line"/>
      <point x="672" y="730" type="line"/>
      <point x="480" y="279" type="line"/>
      <point x="462" y="279" type="line"/>
      <point x="269" y="730" type="line"/>
      <point x="95" y="730" type="line"/>
    </contour>
  </outline>
</glyph>
<glyph name="N" format="2">
  <advance width="862"/>
  <unicode hex="004E"/>
  <anchor x="421" y="0" name="bottom"/>
  <anchor x="446" y="730" name="top"/>
  <outline>
    <contour>
      <point x="95" y="0" type="line"/>
      <point x="215" y="0" type="line"/>
      <point x="215" y="639" type="line"/>
      <point x="195" y="621" type="line"/>
      <point x="228" y="621" type="line"/>
      <point x="554" y="0" type="line"/>
      <point x="767" y="0" type="line"/>
      <point x="767" y="730" type="line"/>
      <point x="645" y="730" type="line"/>
      <point x="645" y="91" type="line"/>
      <point x="665" y="109" type="line"/>
      <point x="632" y="109" type="line"/>
      <point x="305" y="730" type="line"/>
      <point x="95" y="730" type="line"/>
    </contour>
  </outline>
</glyph>
<glyph name="O" format="2">
  <advance width="865"/>
  <unicode hex="004F"/>
  <anchor x="433" y="0" name="bottom"/>
  <anchor x="433" y="360" name="center"/>
  <anchor x="563" y="10" name="ogonek"/>
  <anchor x="433" y="730" name="top"/>
  <outline>
    <contour>
      <point x="433" y="-19" type="curve" smooth="yes"/>
      <point x="695" y="-19"/>
      <point x="816" y="194"/>
      <point x="816" y="356" type="curve" smooth="yes"/>
      <point x="816" y="378" type="line" smooth="yes"/>
      <point x="816" y="555"/>
      <point x="688" y="751"/>
      <point x="433" y="751" type="curve" smooth="yes"/>
      <point x="177" y="751"/>
      <point x="50" y="555"/>
      <point x="50" y="378" type="curve" smooth="yes"/>
      <point x="50" y="356" type="line" smooth="yes"/>
      <point x="50" y="194"/>
      <point x="170" y="-19"/>
    </contour>
    <contour>
      <point x="433" y="101" type="curve" smooth="yes"/>
      <point x="277" y="101"/>
      <point x="180" y="224"/>
      <point x="180" y="366" type="curve" smooth="yes"/>
      <point x="180" y="516"/>
      <point x="277" y="631"/>
      <point x="433" y="631" type="curve" smooth="yes"/>
      <point x="588" y="631"/>
      <point x="685" y="516"/>
      <point x="685" y="366" type="curve" smooth="yes"/>
      <point x="685" y="224"/>
      <point x="588" y="101"/>
    </contour>
  </outline>
</glyph>
<glyph name="P" format="2">
  <advance width="653"/>
  <unicode hex="0050"/>
  <outline>
    <contour>
      <point x="204" y="233" type="line"/>
      <point x="338" y="233" type="line" smooth="yes"/>
      <point x="520" y="233"/>
      <point x="622" y="327"/>
      <point x="622" y="476" type="curve" smooth="yes"/>
      <point x="622" y="492" type="line" smooth="yes"/>
      <point x="622" y="642"/>
      <point x="520" y="735"/>
      <point x="338" y="735" type="curve" smooth="yes"/>
      <point x="204" y="735" type="line"/>
      <point x="204" y="623" type="line"/>
      <point x="352" y="623" type="line" smooth="yes"/>
      <point x="442" y="623"/>
      <point x="492" y="566"/>
      <point x="492" y="484" type="curve" smooth="yes"/>
      <point x="492" y="403"/>
      <point x="442" y="345"/>
      <point x="352" y="345" type="curve" smooth="yes"/>
      <point x="204" y="345" type="line"/>
    </contour>
    <contour>
      <point x="95" y="0" type="line"/>
      <point x="224" y="0" type="line"/>
      <point x="224" y="735" type="line"/>
      <point x="95" y="735" type="line"/>
    </contour>
  </outline>
</glyph>
<glyph name="Q" format="2">
  <advance width="865"/>
  <unicode hex="0051"/>
  <guideline x="431" y="360" angle="90.0"/>
  <anchor x="433" y="0" name="bottom"/>
  <anchor x="433" y="360" name="center"/>
  <anchor x="563" y="10" name="ogonek"/>
  <anchor x="433" y="730" name="top"/>
  <outline>
    <contour>
      <point x="571" y="-214" type="curve" smooth="yes"/>
      <point x="676" y="-214" type="line"/>
      <point x="676" y="-109" type="line"/>
      <point x="559" y="-109" type="line" smooth="yes"/>
      <point x="518" y="-109"/>
      <point x="492" y="-85"/>
      <point x="492" y="-43" type="curve" smooth="yes"/>
      <point x="492" y="67" type="line"/>
      <point x="373" y="67" type="line"/>
      <point x="373" y="-32" type="line" smooth="yes"/>
      <point x="373" y="-176"/>
      <point x="450" y="-214"/>
    </contour>
    <component base="O"/>
  </outline>
</glyph>
<glyph name="T" format="2">
  <advance width="605"/>
  <unicode hex="0054"/>
  <anchor x="303" y="0" name="bottom"/>
  <anchor x="303" y="365" name="center"/>
  <anchor x="303" y="730" name="top"/>
  <outline>
    <contour>
      <point x="238" y="0" type="line"/>
      <point x="367" y="0" type="line"/>
      <point x="367" y="636" type="line"/>
      <point x="238" y="636" type="line"/>
    </contour>
    <contour>
      <point x="24" y="616" type="line"/>
      <point x="581" y="616" type="line"/>
      <point x="581" y="730" type="line"/>
      <point x="24" y="730" type="line"/>
    </contour>
  </outline>
</glyph>
<glyph name="U" format="2">
  <advance width="783"/>
  <unicode hex="0055"/>
  <anchor x="392" y="0" name="bottom"/>
  <anchor x="527" y="12" name="ogonek"/>
  <anchor x="392" y="730" name="top"/>
  <outline>
    <contour>
      <point x="392" y="-19" type="curve" smooth="yes"/>
      <point x="595" y="-19"/>
      <point x="702" y="105"/>
      <point x="702" y="293" type="curve" smooth="yes"/>
      <point x="702" y="730" type="line"/>
      <point x="573" y="730" type="line"/>
      <point x="573" y="284" type="line" smooth="yes"/>
      <point x="573" y="172"/>
      <point x="508" y="101"/>
      <point x="392" y="101" type="curve" smooth="yes"/>
      <point x="275" y="101"/>
      <point x="210" y="173"/>
      <point x="210" y="284" type="curve" smooth="yes"/>
      <point x="210" y="730" type="line"/>
      <point x="81" y="730" type="line"/>
      <point x="81" y="293" type="line" smooth="yes"/>
      <point x="81" y="105"/>
      <point x="189" y="-19"/>
    </contour>
  </outline>
</glyph>
<glyph name="V" format="2">
  <advance width="723"/>
  <unicode hex="0056"/>
  <outline>
    <contour>
      <point x="260" y="0" type="line"/>
      <point x="474" y="0" type="line"/>
      <point x="696" y="730" type="line"/>
      <point x="567" y="730" type="line"/>
      <point x="380" y="87" type="line"/>
      <point x="425" y="109" type="line"/>
      <point x="314" y="109" type="line"/>
      <point x="357" y="87" type="line"/>
      <point x="154" y="730" type="line"/>
      <point x="21" y="730" type="line"/>
    </contour>
  </outline>
</glyph>
<glyph name="Y" format="2">
  <advance width="654"/>
  <unicode hex="0059"/>
  <anchor x="334" y="0" name="bottom"/>
  <anchor x="327" y="730" name="top"/>
  <outline>
    <contour>
      <point x="235" y="281" type="line"/>
      <point x="433" y="281" type="line"/>
      <point x="641" y="730" type="line"/>
      <point x="516" y="730" type="line"/>
      <point x="353" y="368" type="line"/>
      <point x="389" y="378" type="line"/>
      <point x="287" y="378" type="line"/>
      <point x="321" y="368" type="line"/>
      <point x="145" y="730" type="line"/>
      <point x="12" y="730" type="line"/>
    </contour>
    <contour>
      <point x="271" y="0" type="line"/>
      <point x="397" y="0" type="line"/>
      <point x="397" y="302" type="line"/>
      <point x="271" y="302" type="line"/>
    </contour>
  </outline>
</glyph>
<glyph name="Z" format="2">
  <advance width="651"/>
  <unicode hex="005A"/>
  <anchor x="332" y="0" name="bottom"/>
  <anchor x="324" y="365" name="center"/>
  <anchor x="327" y="730" name="top"/>
  <outline>
    <contour>
      <point x="51" y="0" type="line"/>
      <point x="610" y="0" type="line"/>
      <point x="610" y="106" type="line"/>
      <point x="190" y="106" type="line"/>
      <point x="215" y="89" type="line"/>
      <point x="182" y="134" type="line"/>
      <point x="184" y="109" type="line"/>
      <point x="603" y="609" type="line"/>
      <point x="603" y="730" type="line"/>
      <point x="62" y="730" type="line"/>
      <point x="62" y="624" type="line"/>
      <point x="459" y="624" type="line"/>
      <point x="440" y="638" type="line"/>
      <point x="469" y="599" type="line"/>
      <point x="468" y="621" type="line"/>
      <point x="51" y="121" type="line"/>
    </contour>
  </outline>
</glyph>
<glyph name="bracketleft" format="2">
  <advance width="384"/>
  <unicode hex="005B"/>
  <guideline x="3" y="-182" angle="0.0"/>
  <outline>
    <contour>
      <point x="99" y="-182" type="line"/>
      <point x="219" y="-182" type="line"/>
      <point x="219" y="776" type="line"/>
      <point x="99" y="776" type="line"/>
    </contour>
    <contour>
      <point x="171" y="-182" type="line"/>
      <point x="335" y="-182" type="line"/>
      <point x="335" y="-79" type="line"/>
      <point x="171" y="-79" type="line"/>
    </contour>
    <contour>
      <point x="171" y="673" type="line"/>
      <point x="335" y="673" type="line"/>
      <point x="335" y="776" type="line"/>
      <point x="171" y="776" type="line"/>
    </contour>
  </outline>
</glyph>
<glyph name="backslash" format="2">
  <advance width="373"/>
  <unicode hex="005C"/>
  <outline>
    <contour>
      <point x="236" y="-60" type="line"/>
      <point x="359" y="-60" type="line"/>
      <point x="137" y="780" type="line"/>
      <point x="15" y="780" type="line"/>
    </contour>
  </outline>
</glyph>
<glyph name="a" format="2">
  <advance width="584"/>
  <unicode hex="0061"/>
  <anchor x="507" y="10" name="ogonek"/>
  <anchor x="284" y="540" name="top"/>
  <outline>
    <contour>
      <point x="410" y="0" type="line"/>
      <point x="509" y="0" type="line"/>
      <point x="509" y="337" type="line" smooth="yes"/>
      <point x="509" y="487"/>
      <point x="429" y="548"/>
      <point x="263" y="548" type="curve" smooth="yes"/>
      <point x="210" y="548"/>
      <point x="145" y="545"/>
      <point x="100" y="541" type="curve"/>
      <point x="100" y="433" type="line"/>
      <point x="152" y="437"/>
      <point x="236" y="440"/>
      <point x="290" y="440" type="curve" smooth="yes"/>
      <point x="356" y="440"/>
      <point x="389" y="407"/>
      <point x="389" y="342" type="curve" smooth="yes"/>
      <point x="389" y="161" type="line"/>
      <point x="410" y="161" type="line"/>
    </contour>
    <contour>
      <point x="235" y="-14" type="curve" smooth="yes"/>
      <point x="348" y="-14"/>
      <point x="410" y="47"/>
      <point x="420" y="161" type="curve"/>
      <point x="389" y="200" type="line"/>
      <point x="385" y="107"/>
      <point x="328" y="78"/>
      <point x="268" y="78" type="curve" smooth="yes"/>
      <point x="200" y="78"/>
      <point x="163" y="113"/>
      <point x="163" y="165" type="curve" smooth="yes"/>
      <point x="163" y="218"/>
      <point x="201" y="254"/>
      <point x="268" y="254" type="curve" smooth="yes"/>
      <point x="402" y="254" type="line"/>
      <point x="402" y="334" type="line"/>
      <point x="271" y="334" type="line" smooth="yes"/>
      <point x="128" y="334"/>
      <point x="39" y="278"/>
      <point x="39" y="161" type="curve" smooth="yes"/>
      <point x="39" y="50"/>
      <point x="115" y="-14"/>
    </contour>
  </outline>
</glyph>
<glyph name="c" format="2">
  <advance width="608"/>
  <unicode hex="0063"/>
  <anchor x="318" y="0" name="bottom"/>
  <anchor x="319" y="540" name="top"/>
  <outline>
    <contour>
      <point x="320" y="-19" type="curve" smooth="yes"/>
      <point x="461" y="-19"/>
      <point x="567" y="67"/>
      <point x="575" y="198" type="curve"/>
      <point x="453" y="198" type="line"/>
      <point x="445" y="136"/>
      <point x="397" y="91"/>
      <point x="320" y="91" type="curve" smooth="yes"/>
      <point x="217" y="91"/>
      <point x="172" y="168"/>
      <point x="172" y="269" type="curve" smooth="yes"/>
      <point x="172" y="374"/>
      <point x="219" y="449"/>
      <point x="319" y="449" type="curve" smooth="yes"/>
      <point x="395" y="449"/>
      <point x="439" y="404"/>
      <point x="447" y="346" type="curve"/>
      <point x="569" y="346" type="line"/>
      <point x="561" y="474"/>
      <point x="459" y="559"/>
      <point x="319" y="559" type="curve" smooth="yes"/>
      <point x="138" y="559"/>
      <point x="46" y="420"/>
      <point x="46" y="279" type="curve" smooth="yes"/>
      <point x="46" y="260" type="line" smooth="yes"/>
      <point x="46" y="123"/>
      <point x="134" y="-19"/>
    </contour>
  </outline>
</glyph>
<glyph name="d" format="2">
  <advance width="696"/>
  <unicode hex="0064"/>
  <anchor x="335" y="0" name="bottom"/>
  <anchor x="499" y="641" name="center"/>
  <anchor x="550" y="730" name="top"/>
  <anchor x="607" y="534" name="topright"/>
  <outline>
    <contour>
      <point x="307" y="-18" type="curve" smooth="yes"/>
      <point x="432" y="-18"/>
      <point x="531" y="61"/>
      <point x="538" y="232" type="curve"/>
      <point x="513" y="232" type="line"/>
      <point x="513" y="0" type="line"/>
      <point x="613" y="0" type="line"/>
      <point x="613" y="730" type="line"/>
      <point x="487" y="730" type="line"/>
      <point x="487" y="363" type="line"/>
      <point x="527" y="310" type="line"/>
      <point x="520" y="478"/>
      <point x="429" y="558"/>
      <point x="303" y="558" type="curve" smooth="yes"/>
      <point x="149" y="558"/>
      <point x="46" y="434"/>
      <point x="46" y="279" type="curve" smooth="yes"/>
      <point x="46" y="259" type="line" smooth="yes"/>
      <point x="46" y="103"/>
      <point x="155" y="-18"/>
    </contour>
    <contour>
      <point x="333" y="89" type="curve" smooth="yes"/>
      <point x="239" y="89"/>
      <point x="172" y="159"/>
      <point x="172" y="269" type="curve" smooth="yes"/>
      <point x="172" y="378"/>
      <point x="237" y="451"/>
      <point x="332" y="451" type="curve" smooth="yes"/>
      <point x="416" y="451"/>
      <point x="491" y="394"/>
      <point x="491" y="295" type="curve" smooth="yes"/>
      <point x="491" y="253" type="line" smooth="yes"/>
      <point x="491" y="151"/>
      <point x="420" y="89"/>
    </contour>
  </outline>
</glyph>
<glyph name="e" format="2">
  <advance width="618"/>
  <unicode hex="0065"/>
  <anchor x="321" y="0" name="bottom"/>
  <anchor x="501" y="52" name="ogonek"/>
  <anchor x="315" y="540" name="top"/>
  <outline>
    <contour>
      <point x="321" y="-19" type="curve" smooth="yes"/>
      <point x="452" y="-19"/>
      <point x="546" y="53"/>
      <point x="569" y="164" type="curve"/>
      <point x="453" y="164" type="line"/>
      <point x="441" y="121"/>
      <point x="393" y="87"/>
      <point x="321" y="87" type="curve" smooth="yes"/>
      <point x="212" y="87"/>
      <point x="164" y="163"/>
      <point x="164" y="270" type="curve" smooth="yes"/>
      <point x="164" y="381"/>
      <point x="215" y="453"/>
      <point x="315" y="453" type="curve" smooth="yes"/>
      <point x="412" y="453"/>
      <point x="460" y="388"/>
      <point x="460" y="281" type="curve"/>
      <point x="496" y="322" type="line"/>
      <point x="100" y="322" type="line"/>
      <point x="100" y="241" type="line"/>
      <point x="578" y="241" type="line"/>
      <point x="578" y="289" type="line" smooth="yes"/>
      <point x="578" y="429"/>
      <point x="489" y="559"/>
      <point x="315" y="559" type="curve" smooth="yes"/>
      <point x="136" y="559"/>
      <point x="46" y="421"/>
      <point x="46" y="279" type="curve" smooth="yes"/>
      <point x="46" y="261" type="line" smooth="yes"/>
      <point x="46" y="123"/>
      <point x="134" y="-19"/>
    </contour>
  </outline>
</glyph>
<glyph name="h" format="2">
  <advance width="646"/>
  <unicode hex="0068"/>
  <anchor x="327" y="0" name="bottom"/>
  <anchor x="197" y="640" name="center"/>
  <anchor x="146" y="730" name="top"/>
  <outline>
    <contour>
      <point x="83" y="0" type="line"/>
      <point x="209" y="0" type="line"/>
      <point x="209" y="312" type="line" smooth="yes"/>
      <point x="209" y="390"/>
      <point x="257" y="443"/>
      <point x="331" y="443" type="curve" smooth="yes"/>
      <point x="399" y="443"/>
      <point x="445" y="398"/>
      <point x="445" y="324" type="curve" smooth="yes"/>
      <point x="445" y="0" type="line"/>
      <point x="571" y="0" type="line"/>
      <point x="571" y="308" type="line" smooth="yes"/>
      <point x="571" y="469"/>
      <point x="506" y="557"/>
      <point x="380" y="557" type="curve" smooth="yes"/>
      <point x="375" y="557" type="line" smooth="yes"/>
      <point x="245" y="557"/>
      <point x="185" y="462"/>
      <point x="185" y="301" type="curve"/>
      <point x="209" y="301" type="line"/>
      <point x="209" y="730" type="line"/>
      <point x="83" y="730" type="line"/>
    </contour>
  </outline>
</glyph>
<glyph name="i" format="2">
  <advance width="320"/>
  <unicode hex="0069"/>
  <anchor x="172" y="0" name="bottom"/>
  <outline>
    <contour>
      <point x="109" y="0" type="line"/>
      <point x="235" y="0" type="line"/>
      <point x="235" y="540" type="line"/>
      <point x="109" y="540" type="line"/>
    </contour>
    <contour>
      <point x="31" y="445" type="line"/>
      <point x="235" y="445" type="line"/>
      <point x="235" y="540" type="line"/>
      <point x="31" y="540" type="line"/>
    </contour>
    <contour>
      <point x="152" y="612" type="curve" smooth="yes"/>
      <point x="203" y="612"/>
      <point x="227" y="641"/>
      <point x="227" y="682" type="curve" smooth="yes"/>
      <point x="227" y="724"/>
      <point x="203" y="753"/>
      <point x="152" y="753" type="curve" smooth="yes"/>
      <point x="101" y="753"/>
      <point x="78" y="724"/>
      <point x="78" y="682" type="curve" smooth="yes"/>
      <point x="78" y="641"/>
      <point x="101" y="612"/>
    </contour>
  </outline>
</glyph>
<glyph name="n" format="2">
  <advance width="646"/>
  <unicode hex="006E"/>
  <anchor x="327" y="0" name="bottom"/>
  <anchor x="330" y="540" name="top"/>
  <outline>
    <contour>
      <point x="83" y="0" type="line"/>
      <point x="209" y="0" type="line"/>
      <point x="209" y="319" type="line" smooth="yes"/>
      <point x="209" y="393"/>
      <point x="258" y="443"/>
      <point x="331" y="443" type="curve" smooth="yes"/>
      <point x="402" y="443"/>
      <point x="445" y="395"/>
      <point x="445" y="324" type="curve" smooth="yes"/>
      <point x="445" y="0" type="line"/>
      <point x="571" y="0" type="line"/>
      <point x="571" y="309" type="line" smooth="yes"/>
      <point x="571" y="472"/>
      <point x="505" y="557"/>
      <point x="374" y="557" type="curve" smooth="yes"/>
      <point x="368" y="557" type="line" smooth="yes"/>
      <point x="237" y="557"/>
      <point x="172" y="471"/>
      <point x="172" y="308" type="curve"/>
      <point x="183" y="308" type="line"/>
      <point x="183" y="540" type="line"/>
      <point x="83" y="540" type="line"/>
    </contour>
  </outline>
</glyph>
<glyph name="q" format="2">
  <advance width="696"/>
  <unicode hex="0071"/>
  <outline>
    <contour>
      <point x="487" y="-200" type="line"/>
      <point x="613" y="-200" type="line"/>
      <point x="613" y="540" type="line"/>
      <point x="513" y="540" type="line"/>
      <point x="513" y="309" type="line"/>
      <point x="537" y="309" type="line"/>
      <point x="531" y="468"/>
      <point x="442" y="558"/>
      <point x="307" y="558" type="curve" smooth="yes"/>
      <point x="151" y="558"/>
      <point x="46" y="436"/>
      <point x="46" y="282" type="curve" smooth="yes"/>
      <point x="46" y="262" type="line" smooth="yes"/>
      <point x="46" y="107"/>
      <point x="149" y="-18"/>
      <point x="302" y="-18" type="curve" smooth="yes"/>
      <point x="428" y="-18"/>
      <point x="521" y="66"/>
      <point x="527" y="228" type="curve"/>
      <point x="487" y="160" type="line"/>
    </contour>
    <contour>
      <point x="333" y="92" type="curve" smooth="yes"/>
      <point x="239" y="92"/>
      <point x="172" y="163"/>
      <point x="172" y="272" type="curve" smooth="yes"/>
      <point x="172" y="380"/>
      <point x="237" y="453"/>
      <point x="333" y="453" type="curve" smooth="yes"/>
      <point x="416" y="453"/>
      <point x="491" y="397"/>
      <point x="491" y="298" type="curve" smooth="yes"/>
      <point x="491" y="256" type="line" smooth="yes"/>
      <point x="491" y="153"/>
      <point x="420" y="92"/>
    </contour>
  </outline>
</glyph>
<glyph name="r" format="2">
  <advance width="415"/>
  <unicode hex="0072"/>
  <note>
r / design an alternative version with a round hook. Look at lettera (based on Olivetti Candia)
</note>
  <anchor x="146" y="0" name="bottom"/>
  <anchor x="232" y="540" name="top"/>
  <outline>
    <contour>
      <point x="83" y="0" type="line"/>
      <point x="209" y="0" type="line"/>
      <point x="209" y="284" type="line" smooth="yes"/>
      <point x="209" y="382"/>
      <point x="263" y="437"/>
      <point x="362" y="437" type="curve" smooth="yes"/>
      <point x="398" y="437" type="line"/>
      <point x="398" y="547" type="line"/>
      <point x="379" y="547" type="line" smooth="yes"/>
      <point x="247" y="547"/>
      <point x="179" y="469"/>
      <point x="179" y="313" type="curve"/>
      <point x="183" y="313" type="line"/>
      <point x="183" y="540" type="line"/>
      <point x="83" y="540" type="line"/>
    </contour>
  </outline>
</glyph>
<glyph name="u" format="2">
  <advance width="636"/>
  <unicode hex="0075"/>
  <anchor x="549" y="10" name="ogonek"/>
  <anchor x="311" y="540" name="top"/>
  <outline>
    <contour>
      <point x="268" y="-17" type="curve" smooth="yes"/>
      <point x="273" y="-17" type="line" smooth="yes"/>
      <point x="399" y="-17"/>
      <point x="462" y="68"/>
      <point x="462" y="230" type="curve"/>
      <point x="451" y="230" type="line"/>
      <point x="451" y="0" type="line"/>
      <point x="551" y="0" type="line"/>
      <point x="551" y="541" type="line"/>
      <point x="425" y="541" type="line"/>
      <point x="425" y="221" type="line" smooth="yes"/>
      <point x="425" y="144"/>
      <point x="376" y="97"/>
      <point x="307" y="97" type="curve" smooth="yes"/>
      <point x="240" y="97"/>
      <point x="197" y="141"/>
      <point x="197" y="213" type="curve" smooth="yes"/>
      <point x="197" y="541" type="line"/>
      <point x="71" y="541" type="line"/>
      <point x="71" y="227" type="line" smooth="yes"/>
      <point x="71" y="67"/>
      <point x="142" y="-17"/>
    </contour>
  </outline>
</glyph>
<glyph name="v" format="2">
  <advance width="576"/>
  <unicode hex="0076"/>
  <outline>
    <contour>
      <point x="193" y="0" type="line"/>
      <point x="317" y="0" type="line"/>
      <point x="150" y="540" type="line"/>
      <point x="20" y="540" type="line"/>
    </contour>
    <contour>
      <point x="229" y="0" type="line"/>
      <point x="367" y="0" type="line"/>
      <point x="367" y="103" type="line"/>
      <point x="229" y="103" type="line"/>
    </contour>
    <contour>
      <point x="282" y="0" type="line"/>
      <point x="398" y="0" type="line"/>
      <point x="548" y="540" type="line"/>
      <point x="426" y="540" type="line"/>
    </contour>
  </outline>
</glyph>
<glyph name="y" format="2">
  <advance width="557"/>
  <unicode hex="0079"/>
  <anchor x="279" y="540" name="top"/>
  <outline>
    <contour>
      <point x="61" y="-212" type="line"/>
      <point x="144" y="-212" type="line" smooth="yes"/>
      <point x="271" y="-212"/>
      <point x="338" y="-168"/>
      <point x="370" y="-51" type="curve" smooth="yes"/>
      <point x="537" y="540" type="line"/>
      <point x="415" y="540" type="line"/>
      <point x="263" y="-23" type="line" smooth="yes"/>
      <point x="246" y="-83"/>
      <point x="215" y="-103"/>
      <point x="155" y="-103" type="curve" smooth="yes"/>
      <point x="61" y="-103" type="line"/>
    </contour>
    <contour>
      <point x="228" y="12" type="line"/>
      <point x="344" y="12" type="line"/>
      <point x="344" y="113" type="line"/>
      <point x="228" y="113" type="line"/>
    </contour>
    <contour>
      <point x="192" y="12" type="line"/>
      <point x="311" y="12" type="line"/>
      <point x="139" y="540" type="line"/>
      <point x="12" y="540" type="line"/>
    </contour>
  </outline>
</glyph>
<glyph name="z" format="2">
  <advance width="494"/>
  <unicode hex="007A"/>
  <anchor x="252" y="0" name="bottom"/>
  <anchor x="249" y="267" name="center"/>
  <anchor x="245" y="540" name="top"/>
  <outline>
    <contour>
      <point x="48" y="0" type="line"/>
      <point x="463" y="0" type="line"/>
      <point x="463" y="98" type="line"/>
      <point x="180" y="98" type="line"/>
      <point x="196" y="88" type="line"/>
      <point x="175" y="116" type="line"/>
      <point x="175" y="101" type="line"/>
      <point x="450" y="431" type="line"/>
      <point x="450" y="540" type="line"/>
      <point x="46" y="540" type="line"/>
      <point x="46" y="443" type="line"/>
      <point x="319" y="443" type="line"/>
      <point x="304" y="450" type="line"/>
      <point x="323" y="423" type="line"/>
      <point x="323" y="439" type="line"/>
      <point x="48" y="109" type="line"/>
    </contour>
  </outline>
</glyph>
<glyph name="cent" format="2">
  <advance width="611"/>
  <unicode hex="00A2"/>
  <outline>
    <contour>
      <point x="318" y="99" type="curve" smooth="yes"/>
      <point x="457" y="99"/>
      <point x="564" y="176"/>
      <point x="574" y="303" type="curve"/>
      <point x="454" y="303" type="line"/>
      <point x="447" y="246"/>
      <point x="393" y="204"/>
      <point x="318" y="204" type="curve" smooth="yes"/>
      <point x="220" y="204"/>
      <point x="168" y="271"/>
      <point x="168" y="367" type="curve" smooth="yes"/>
      <point x="168" y="465"/>
      <point x="224" y="530"/>
      <point x="318" y="530" type="curve" smooth="yes"/>
      <point x="391" y="530"/>
      <point x="441" y="490"/>
      <point x="449" y="435" type="curve"/>
      <point x="569" y="435" type="line"/>
      <point x="556" y="563"/>
      <point x="456" y="636"/>
      <point x="318" y="636" type="curve" smooth="yes"/>
      <point x="139" y="636"/>
      <point x="46" y="513"/>
      <point x="46" y="377" type="curve" smooth="yes"/>
      <point x="46" y="357" type="line" smooth="yes"/>
      <point x="46" y="225"/>
      <point x="136" y="99"/>
    </contour>
    <contour>
      <point x="266" y="0" type="line"/>
      <point x="373" y="0" type="line"/>
      <point x="373" y="146" type="line"/>
      <point x="266" y="146" type="line"/>
    </contour>
    <contour>
      <point x="266" y="581" type="line"/>
      <point x="373" y="581" type="line"/>
      <point x="373" y="727" type="line"/>
      <point x="266" y="727" type="line"/>
    </contour>
  </outline>
</glyph>
<glyph name="sterling" format="2">
  <advance width="630"/>
  <unicode hex="00A3"/>
  <outline>
    <contour>
      <point x="117" y="0" type="line"/>
      <point x="231" y="0" type="line"/>
      <point x="231" y="483" type="line" smooth="yes"/>
      <point x="231" y="588"/>
      <point x="282" y="635"/>
      <point x="386" y="635" type="curve" smooth="yes"/>
      <point x="430" y="635"/>
      <point x="511" y="630"/>
      <point x="550" y="625" type="curve"/>
      <point x="550" y="729" type="line"/>
      <point x="512" y="734"/>
      <point x="434" y="739"/>
      <point x="388" y="739" type="curve" smooth="yes"/>
      <point x="214" y="739"/>
      <point x="117" y="649"/>
      <point x="117" y="490" type="curve" smooth="yes"/>
    </contour>
    <contour>
      <point x="43" y="0" type="line"/>
      <point x="531" y="0" type="line"/>
      <point x="531" y="98" type="line"/>
      <point x="43" y="98" type="line"/>
    </contour>
    <contour>
      <point x="49" y="315" type="line"/>
      <point x="477" y="315" type="line"/>
      <point x="477" y="399" type="line"/>
      <point x="49" y="399" type="line"/>
    </contour>
    <contour>
      <point x="495" y="0" type="line"/>
      <point x="596" y="0" type="line"/>
      <point x="596" y="190" type="line"/>
      <point x="495" y="190" type="line"/>
    </contour>
  </outline>
</glyph>
<glyph name="currency" format="2">
  <advance width="674"/>
  <unicode hex="00A4"/>
  <outline>
    <contour>
      <point x="337" y="140" type="curve" smooth="yes"/>
      <point x="487" y="140"/>
      <point x="573" y="252"/>
      <point x="573" y="359" type="curve" smooth="yes"/>
      <point x="573" y="375" type="line" smooth="yes"/>
      <point x="573" y="483"/>
      <point x="487" y="593"/>
      <point x="337" y="593" type="curve" smooth="yes"/>
      <point x="187" y="593"/>
      <point x="101" y="483"/>
      <point x="101" y="375" type="curve" smooth="yes"/>
      <point x="101" y="359" type="line" smooth="yes"/>
      <point x="101" y="252"/>
      <point x="187" y="140"/>
    </contour>
    <contour>
      <point x="110" y="80" type="line"/>
      <point x="217" y="187" type="line"/>
      <point x="144" y="261" type="line"/>
      <point x="37" y="154" type="line"/>
    </contour>
    <contour>
      <point x="144" y="472" type="line"/>
      <point x="217" y="546" type="line"/>
      <point x="110" y="652" type="line"/>
      <point x="37" y="578" type="line"/>
    </contour>
    <contour>
      <point x="337" y="240" type="curve" smooth="yes"/>
      <point x="256" y="240"/>
      <point x="211" y="292"/>
      <point x="211" y="367" type="curve" smooth="yes"/>
      <point x="211" y="444"/>
      <point x="258" y="494"/>
      <point x="337" y="494" type="curve" smooth="yes"/>
      <point x="416" y="494"/>
      <point x="463" y="444"/>
      <point x="463" y="367" type="curve" smooth="yes"/>
      <point x="463" y="292"/>
      <point x="418" y="240"/>
    </contour>
    <contour>
      <point x="563" y="80" type="line"/>
      <point x="637" y="154" type="line"/>
      <point x="530" y="261" type="line"/>
      <point x="457" y="187" type="line"/>
    </contour>
    <contour>
      <point x="530" y="472" type="line"/>
      <point x="637" y="578" type="line"/>
      <point x="563" y="652" type="line"/>
      <point x="457" y="546" type="line"/>
    </contour>
  </outline>
</glyph>
<glyph name="brokenbar" format="2">
  <advance width="375"/>
  <unicode hex="00A6"/>
  <outline>
    <contour>
      <point x="133" y="339" type="line"/>
      <point x="242" y="339" type="line"/>
      <point x="242" y="730" type="line"/>
      <point x="133" y="730" type="line"/>
    </contour>
    <contour>
      <point x="133" y="-200" type="line"/>
      <point x="242" y="-200" type="line"/>
      <point x="242" y="184" type="line"/>
      <point x="133" y="184" type="line"/>
    </contour>
  </outline>
</glyph>
<glyph name="registered" format="2">
  <advance width="678"/>
  <unicode hex="00AE"/>
  <outline>
    <contour>
      <point x="339" y="179" type="curve" smooth="yes"/>
      <point x="526" y="179"/>
      <point x="624" y="325"/>
      <point x="624" y="456" type="curve" smooth="yes"/>
      <point x="624" y="472" type="line" smooth="yes"/>
      <point x="624" y="607"/>
      <point x="522" y="747"/>
      <point x="339" y="747" type="curve" smooth="yes"/>
      <point x="156" y="747"/>
      <point x="54" y="607"/>
      <point x="54" y="472" type="curve" smooth="yes"/>
      <point x="54" y="456" type="line" smooth="yes"/>
      <point x="54" y="325"/>
      <point x="152" y="179"/>
    </contour>
    <contour>
      <point x="339" y="231" type="curve" smooth="yes"/>
      <point x="201" y="231"/>
      <point x="110" y="335"/>
      <point x="110" y="463" type="curve" smooth="yes"/>
      <point x="110" y="595"/>
      <point x="201" y="695"/>
      <point x="339" y="695" type="curve" smooth="yes"/>
      <point x="477" y="695"/>
      <point x="568" y="595"/>
      <point x="568" y="463" type="curve" smooth="yes"/>
      <point x="568" y="335"/>
      <point x="477" y="231"/>
    </contour>
    <contour>
      <point x="225" y="314" type="line"/>
      <point x="293" y="314" type="line"/>
      <point x="293" y="624" type="line"/>
      <point x="225" y="624" type="line"/>
    </contour>
    <contour>
      <point x="408" y="314" type="line"/>
      <point x="486" y="314" type="line"/>
      <point x="397" y="433" type="line"/>
      <point x="323" y="433" type="line"/>
    </contour>
    <contour>
      <point x="257" y="410" type="line"/>
      <point x="337" y="410" type="line" smooth="yes"/>
      <point x="418" y="410"/>
      <point x="467" y="449"/>
      <point x="467" y="517" type="curve" smooth="yes"/>
      <point x="467" y="586"/>
      <point x="418" y="624"/>
      <point x="337" y="624" type="curve" smooth="yes"/>
      <point x="257" y="624" type="line"/>
      <point x="257" y="565" type="line"/>
      <point x="343" y="565" type="line" smooth="yes"/>
      <point x="380" y="565"/>
      <point x="398" y="550"/>
      <point x="398" y="517" type="curve" smooth="yes"/>
      <point x="398" y="485"/>
      <point x="380" y="469"/>
      <point x="343" y="469" type="curve" smooth="yes"/>
      <point x="257" y="469" type="line"/>
    </contour>
  </outline>
</glyph>
<glyph name="paragraph" format="2">
  <advance width="637"/>
  <unicode hex="00B6"/>
  <outline>
    <contour>
      <point x="201" y="387" type="curve" smooth="yes"/>
      <point x="301" y="387" type="line"/>
      <point x="301" y="734" type="line"/>
      <point x="201" y="734" type="line" smooth="yes"/>
      <point x="72" y="734"/>
      <point x="9" y="668"/>
      <point x="9" y="566" type="curve" smooth="yes"/>
      <point x="9" y="555" type="line" smooth="yes"/>
      <point x="9" y="453"/>
      <point x="72" y="387"/>
    </contour>
    <contour>
      <point x="262" y="0" type="line"/>
      <point x="367" y="0" type="line"/>
      <point x="367" y="734" type="line"/>
      <point x="262" y="734" type="line"/>
    </contour>
    <contour>
      <point x="440" y="0" type="line"/>
      <point x="543" y="0" type="line"/>
      <point x="543" y="734" type="line"/>
      <point x="440" y="734" type="line"/>
    </contour>
  </outline>
</glyph>
<glyph name="AE" format="2">
  <advance width="977"/>
  <unicode hex="00C6"/>
  <outline>
    <contour>
      <point x="5" y="0" type="line"/>
      <point x="134" y="0" type="line"/>
      <point x="387" y="643" type="line"/>
      <point x="336" y="620" type="line"/>
      <point x="497" y="620" type="line"/>
      <point x="497" y="730" type="line"/>
      <point x="294" y="730" type="line"/>
    </contour>
    <contour>
      <point x="192" y="223" type="line"/>
      <point x="497" y="223" type="line"/>
      <point x="497" y="335" type="line"/>
      <point x="235" y="335" type="line"/>
    </contour>
    <contour>
      <point x="476" y="0" type="line"/>
      <point x="602" y="0" type="line"/>
      <point x="602" y="730" type="line"/>
      <point x="476" y="730" type="line"/>
    </contour>
    <contour>
      <point x="581" y="0" type="line"/>
      <point x="919" y="0" type="line"/>
      <point x="919" y="110" type="line"/>
      <point x="581" y="110" type="line"/>
    </contour>
    <contour>
      <point x="581" y="316" type="line"/>
      <point x="893" y="316" type="line"/>
      <point x="893" y="426" type="line"/>
      <point x="581" y="426" type="line"/>
    </contour>
    <contour>
      <point x="581" y="620" type="line"/>
      <point x="910" y="620" type="line"/>
      <point x="910" y="730" type="line"/>
      <point x="581" y="730" type="line"/>
    </contour>
  </outline>
</glyph>
<glyph name="Oslash" format="2">
  <advance width="865"/>
  <unicode hex="00D8"/>
  <anchor x="433" y="0" name="bottom"/>
  <anchor x="433" y="360" name="center"/>
  <anchor x="563" y="10" name="ogonek"/>
  <anchor x="433" y="730" name="top"/>
  <outline>
    <contour>
      <point x="91" y="-58" type="line"/>
      <point x="201" y="-58" type="line"/>
      <point x="773" y="778" type="line"/>
      <point x="663" y="778" type="line"/>
    </contour>
    <component base="O"/>
  </outline>
</glyph>
<glyph name="Thorn" format="2">
  <advance width="636"/>
  <unicode hex="00DE"/>
  <outline>
    <contour>
      <point x="204" y="127" type="line"/>
      <point x="332" y="127" type="line" smooth="yes"/>
      <point x="507" y="127"/>
      <point x="606" y="222"/>
      <point x="606" y="364" type="curve" smooth="yes"/>
      <point x="606" y="378" type="line" smooth="yes"/>
      <point x="606" y="520"/>
      <point x="507" y="615"/>
      <point x="332" y="615" type="curve" smooth="yes"/>
      <point x="204" y="615" type="line"/>
      <point x="204" y="503" type="line"/>
      <point x="343" y="503" type="line" smooth="yes"/>
      <point x="432" y="503"/>
      <point x="475" y="450"/>
      <point x="475" y="371" type="curve" smooth="yes"/>
      <point x="475" y="292"/>
      <point x="432" y="240"/>
      <point x="343" y="240" type="curve" smooth="yes"/>
      <point x="204" y="240" type="line"/>
    </contour>
    <contour>
      <point x="95" y="0" type="line"/>
      <point x="224" y="0" type="line"/>
      <point x="224" y="730" type="line"/>
      <point x="95" y="730" type="line"/>
    </contour>
  </outline>
</glyph>
<glyph name="ae" format="2">
  <advance width="956"/>
  <unicode hex="00E6"/>
  <guideline x="435" y="160" angle="0.0"/>
  <outline>
    <contour>
      <point x="661" y="-19" type="curve" smooth="yes"/>
      <point x="791" y="-19"/>
      <point x="884" y="52"/>
      <point x="908" y="164" type="curve"/>
      <point x="791" y="164" type="line"/>
      <point x="779" y="121"/>
      <point x="731" y="88"/>
      <point x="660" y="88" type="curve" smooth="yes"/>
      <point x="552" y="88"/>
      <point x="504" y="162"/>
      <point x="504" y="268" type="curve" smooth="yes"/>
      <point x="504" y="380"/>
      <point x="556" y="450"/>
      <point x="654" y="450" type="curve" smooth="yes"/>
      <point x="749" y="450"/>
      <point x="798" y="387"/>
      <point x="798" y="281" type="curve"/>
      <point x="835" y="321" type="line"/>
      <point x="491" y="321" type="line"/>
      <point x="491" y="241" type="line"/>
      <point x="917" y="241" type="line"/>
      <point x="917" y="288" type="line" smooth="yes"/>
      <point x="917" y="427"/>
      <point x="827" y="557"/>
      <point x="656" y="557" type="curve" smooth="yes"/>
      <point x="503" y="557"/>
      <point x="430" y="457"/>
      <point x="410" y="339" type="curve"/>
      <point x="492" y="339" type="line"/>
      <point x="491" y="486"/>
      <point x="425" y="547"/>
      <point x="262" y="547" type="curve" smooth="yes"/>
      <point x="210" y="547"/>
      <point x="145" y="545"/>
      <point x="100" y="541" type="curve"/>
      <point x="100" y="433" type="line"/>
      <point x="152" y="436"/>
      <point x="236" y="440"/>
      <point x="290" y="440" type="curve" smooth="yes"/>
      <point x="356" y="440"/>
      <point x="389" y="406"/>
      <point x="389" y="341" type="curve" smooth="yes"/>
      <point x="389" y="201" type="line" smooth="yes"/>
      <point x="386" y="107"/>
      <point x="328" y="78"/>
      <point x="268" y="78" type="curve" smooth="yes"/>
      <point x="200" y="78"/>
      <point x="163" y="113"/>
      <point x="163" y="165" type="curve" smooth="yes"/>
      <point x="163" y="218"/>
      <point x="201" y="254"/>
      <point x="268" y="254" type="curve" smooth="yes"/>
      <point x="402" y="254" type="line"/>
      <point x="402" y="333" type="line"/>
      <point x="271" y="333" type="line" smooth="yes"/>
      <point x="128" y="333"/>
      <point x="39" y="277"/>
      <point x="39" y="160" type="curve" smooth="yes"/>
      <point x="39" y="49"/>
      <point x="116" y="-14"/>
      <point x="237" y="-14" type="curve" smooth="yes"/>
      <point x="354" y="-14"/>
      <point x="438" y="46"/>
      <point x="448" y="162" type="curve"/>
      <point x="412" y="162" type="line"/>
      <point x="441" y="65"/>
      <point x="516" y="-19"/>
    </contour>
  </outline>
</glyph>
<glyph name="divide" format="2">
  <advance width="593"/>
  <unicode hex="00F7"/>
  <outline>
    <contour>
      <point x="58" y="293" type="line"/>
      <point x="534" y="293" type="line"/>
      <point x="534" y="395" type="line"/>
      <point x="58" y="395" type="line"/>
    </contour>
    <contour>
      <point x="234" y="75" type="line"/>
      <point x="359" y="75" type="line"/>
      <point x="359" y="203" type="line"/>
      <point x="234" y="203" type="line"/>
    </contour>
    <contour>
      <point x="234" y="485" type="line"/>
      <point x="359" y="485" type="line"/>
      <point x="359" y="613" type="line"/>
      <point x="234" y="613" type="line"/>
    </contour>
  </outline>
</glyph>
<glyph name="idotless" format="2">
  <advance width="320"/>
  <unicode hex="0131"/>
  <anchor x="172" y="0" name="bottom"/>
  <anchor x="227" y="10" name="ogonek"/>
  <anchor x="143" y="540" name="top"/>
  <outline>
    <contour>
      <point x="109" y="0" type="line"/>
      <point x="235" y="0" type="line"/>
      <point x="235" y="540" type="line"/>
      <point x="109" y="540" type="line"/>
    </contour>
    <contour>
      <point x="31" y="445" type="line"/>
      <point x="235" y="445" type="line"/>
      <point x="235" y="540" type="line"/>
      <point x="31" y="540" type="line"/>
    </contour>
  </outline>
</glyph>
<glyph name="Lslash" format="2">
  <advance width="550"/>
  <unicode hex="0141"/>
  <guideline x="87" y="257" angle="210.0897"/>
  <anchor x="310" y="0" name="bottom"/>
  <anchor x="159" y="365" name="center"/>
  <anchor x="159" y="730" name="top"/>
  <anchor x="273" y="541" name="topright"/>
  <outline>
    <contour>
      <point x="167" y="290" type="line"/>
      <point x="385" y="417" type="line"/>
      <point x="385" y="522" type="line"/>
      <point x="167" y="396" type="line"/>
    </contour>
    <contour>
      <point x="26" y="213" type="line"/>
      <point x="137" y="277" type="line"/>
      <point x="137" y="383" type="line"/>
      <point x="26" y="318" type="line"/>
    </contour>
    <component base="L"/>
  </outline>
</glyph>
<glyph name="Eng" format="2">
  <advance width="862"/>
  <unicode hex="014A"/>
  <outline>
    <contour>
      <point x="436" y="-231" type="line"/>
      <point x="536" y="-231" type="line" smooth="yes"/>
      <point x="696" y="-231"/>
      <point x="767" y="-152"/>
      <point x="767" y="-2" type="curve" smooth="yes"/>
      <point x="767" y="730" type="line"/>
      <point x="645" y="730" type="line"/>
      <point x="645" y="98" type="line"/>
      <point x="665" y="116" type="line"/>
      <point x="629" y="116" type="line"/>
      <point x="305" y="730" type="line"/>
      <point x="95" y="730" type="line"/>
      <point x="95" y="0" type="line"/>
      <point x="215" y="0" type="line"/>
      <point x="215" y="639" type="line"/>
      <point x="195" y="621" type="line"/>
      <point x="228" y="621" type="line"/>
      <point x="548" y="13" type="line"/>
      <point x="680" y="13" type="line"/>
      <point x="646" y="39" type="line"/>
      <point x="646" y="-14" type="line" smooth="yes"/>
      <point x="646" y="-86"/>
      <point x="613" y="-119"/>
      <point x="548" y="-119" type="curve" smooth="yes"/>
      <point x="436" y="-119" type="line"/>
    </contour>
  </outline>
</glyph>
<glyph name="eng" format="2">
  <advance width="646"/>
  <unicode hex="014B"/>
  <anchor x="327" y="0" name="bottom"/>
  <anchor x="330" y="540" name="top"/>
  <outline>
    <contour>
      <point x="307" y="-201" type="line"/>
      <point x="359" y="-201" type="line" smooth="yes"/>
      <point x="504" y="-201"/>
      <point x="571" y="-145"/>
      <point x="571" y="-10" type="curve" smooth="yes"/>
      <point x="571" y="25" type="line"/>
      <point x="445" y="25" type="line"/>
      <point x="445" y="-19" type="line" smooth="yes"/>
      <point x="445" y="-65"/>
      <point x="421" y="-92"/>
      <point x="369" y="-92" type="curve" smooth="yes"/>
      <point x="307" y="-92" type="line"/>
    </contour>
    <component base="n"/>
  </outline>
</glyph>
<glyph name="oe" format="2">
  <advance width="1076"/>
  <unicode hex="0153"/>
  <outline>
    <contour>
      <point x="336" y="-18" type="curve" smooth="yes"/>
      <point x="531" y="-18"/>
      <point x="607" y="123"/>
      <point x="608" y="260" type="curve"/>
      <point x="527" y="260" type="line"/>
      <point x="527" y="127"/>
      <point x="591" y="-19"/>
      <point x="781" y="-19" type="curve" smooth="yes"/>
      <point x="912" y="-19"/>
      <point x="1004" y="51"/>
      <point x="1027" y="162" type="curve"/>
      <point x="911" y="162" type="line"/>
      <point x="899" y="119"/>
      <point x="851" y="88"/>
      <point x="779" y="88" type="curve" smooth="yes"/>
      <point x="670" y="88"/>
      <point x="622" y="164"/>
      <point x="622" y="270" type="curve" smooth="yes"/>
      <point x="622" y="381"/>
      <point x="674" y="452"/>
      <point x="773" y="452" type="curve" smooth="yes"/>
      <point x="868" y="452"/>
      <point x="918" y="388"/>
      <point x="918" y="282" type="curve"/>
      <point x="954" y="321" type="line"/>
      <point x="614" y="321" type="line"/>
      <point x="614" y="242" type="line"/>
      <point x="1037" y="242" type="line"/>
      <point x="1037" y="289" type="line" smooth="yes"/>
      <point x="1037" y="430"/>
      <point x="948" y="559"/>
      <point x="775" y="559" type="curve" smooth="yes"/>
      <point x="596" y="559"/>
      <point x="527" y="421"/>
      <point x="527" y="280" type="curve"/>
      <point x="608" y="280" type="line"/>
      <point x="608" y="423"/>
      <point x="524" y="559"/>
      <point x="336" y="559" type="curve" smooth="yes"/>
      <point x="152" y="559"/>
      <point x="46" y="426"/>
      <point x="46" y="280" type="curve" smooth="yes"/>
      <point x="46" y="260" type="line" smooth="yes"/>
      <point x="46" y="118"/>
      <point x="147" y="-18"/>
    </contour>
    <contour>
      <point x="338" y="91" type="curve" smooth="yes"/>
      <point x="232" y="91"/>
      <point x="172" y="167"/>
      <point x="172" y="270" type="curve" smooth="yes"/>
      <point x="172" y="374"/>
      <point x="235" y="450"/>
      <point x="338" y="450" type="curve" smooth="yes"/>
      <point x="442" y="450"/>
      <point x="505" y="373"/>
      <point x="505" y="270" type="curve" smooth="yes"/>
      <point x="505" y="169"/>
      <point x="445" y="91"/>
    </contour>
  </outline>
</glyph>
<glyph name="Tbar" format="2">
  <advance width="605"/>
  <unicode hex="0166"/>
  <anchor x="303" y="0" name="bottom"/>
  <anchor x="303" y="365" name="center"/>
  <anchor x="303" y="730" name="top"/>
  <outline>
    <contour>
      <point x="88" y="308" type="line"/>
      <point x="517" y="308" type="line"/>
      <point x="517" y="403" type="line"/>
      <point x="88" y="403" type="line"/>
    </contour>
    <component base="T"/>
  </outline>
</glyph>
<glyph name="acutecomb" format="2">
  <unicode hex="0301"/>
  <anchor x="63" y="540" name="_top"/>
  <anchor x="149" y="815" name="top"/>
  <outline>
    <contour>
      <point x="0" y="612" type="line"/>
      <point x="107" y="612" type="line"/>
      <point x="219" y="815" type="line"/>
      <point x="89" y="815" type="line"/>
    </contour>
  </outline>
</glyph>
<glyph name="tildecomb" format="2">
  <unicode hex="0303"/>
  <anchor x="171" y="540" name="_top"/>
  <anchor x="171" y="795" name="top"/>
  <outline>
    <contour>
      <point x="243" y="633" type="curve" smooth="yes"/>
      <point x="287" y="633"/>
      <point x="320" y="653"/>
      <point x="341" y="678" type="curve"/>
      <point x="322" y="763" type="line"/>
      <point x="302" y="741"/>
      <point x="277" y="725"/>
      <point x="245" y="725" type="curve" smooth="yes"/>
      <point x="190" y="725"/>
      <point x="169" y="776"/>
      <point x="97" y="776" type="curve" smooth="yes"/>
      <point x="53" y="776"/>
      <point x="21" y="756"/>
      <point x="0" y="731" type="curve"/>
      <point x="19" y="646" type="line"/>
      <point x="39" y="668"/>
      <point x="63" y="684"/>
      <point x="95" y="684" type="curve" smooth="yes"/>
      <point x="151" y="684"/>
      <point x="171" y="633"/>
    </contour>
  </outline>
</glyph>
<glyph name="brevecomb" format="2">
  <unicode hex="0306"/>
  <anchor x="167" y="540" name="_top"/>
  <anchor x="168" y="813" name="top"/>
  <outline>
    <contour>
      <point x="168" y="606" type="curve" smooth="yes"/>
      <point x="275" y="606"/>
      <point x="329" y="678"/>
      <point x="333" y="815" type="curve"/>
      <point x="247" y="815" type="line"/>
      <point x="244" y="732"/>
      <point x="217" y="692"/>
      <point x="168" y="692" type="curve" smooth="yes"/>
      <point x="119" y="692"/>
      <point x="94" y="732"/>
      <point x="90" y="815" type="curve"/>
      <point x="1" y="815" type="line"/>
      <point x="5" y="678"/>
      <point x="61" y="606"/>
    </contour>
  </outline>
</glyph>
<glyph name="dotaccentcomb" format="2">
  <unicode hex="0307"/>
  <anchor x="72" y="540" name="_top"/>
  <anchor x="72" y="815" name="top"/>
  <outline>
    <contour>
      <point x="72" y="638" type="curve" smooth="yes"/>
      <point x="122" y="638"/>
      <point x="145" y="668"/>
      <point x="145" y="708" type="curve" smooth="yes"/>
      <point x="145" y="749"/>
      <point x="122" y="779"/>
      <point x="72" y="779" type="curve" smooth="yes"/>
      <point x="22" y="779"/>
      <point x="0" y="749"/>
      <point x="0" y="708" type="curve" smooth="yes"/>
      <point x="0" y="668"/>
      <point x="22" y="638"/>
    </contour>
  </outline>
</glyph>
<glyph name="ringcomb" format="2">
  <unicode hex="030A"/>
  <anchor x="119" y="540" name="_top"/>
  <anchor x="119" y="815" name="top"/>
  <outline>
    <contour>
      <point x="119" y="602" type="curve" smooth="yes"/>
      <point x="191" y="602"/>
      <point x="239" y="651"/>
      <point x="239" y="718" type="curve" smooth="yes"/>
      <point x="239" y="785"/>
      <point x="191" y="835"/>
      <point x="119" y="835" type="curve" smooth="yes"/>
      <point x="48" y="835"/>
      <point x="0" y="785"/>
      <point x="0" y="718" type="curve" smooth="yes"/>
      <point x="0" y="651"/>
      <point x="48" y="602"/>
    </contour>
    <contour>
      <point x="119" y="665" type="curve" smooth="yes"/>
      <point x="88" y="665"/>
      <point x="68" y="687"/>
      <point x="68" y="718" type="curve" smooth="yes"/>
      <point x="68" y="749"/>
      <point x="88" y="771"/>
      <point x="119" y="771" type="curve" smooth="yes"/>
      <point x="151" y="771"/>
      <point x="171" y="749"/>
      <point x="171" y="718" type="curve" smooth="yes"/>
      <point x="171" y="687"/>
      <point x="151" y="665"/>
    </contour>
  </outline>
</glyph>
<glyph name="caroncomb" format="2">
  <unicode hex="030C"/>
  <anchor x="184" y="540" name="_top"/>
  <anchor x="179" y="815" name="top"/>
  <outline>
    <contour>
      <point x="107" y="612" type="line"/>
      <point x="255" y="612" type="line"/>
      <point x="352" y="815" type="line"/>
      <point x="251" y="815" type="line"/>
      <point x="188" y="673" type="line"/>
      <point x="178" y="673" type="line"/>
      <point x="105" y="815" type="line"/>
      <point x="0" y="815" type="line"/>
    </contour>
  </outline>
</glyph>
<glyph name="commaturnedabovecomb" format="2">
  <unicode hex="0312"/>
  <anchor x="75" y="540" name="_top"/>
  <anchor x="74" y="795" name="top"/>
  <outline>
    <contour>
      <point x="82" y="599" type="curve" smooth="yes"/>
      <point x="117" y="599"/>
      <point x="149" y="617"/>
      <point x="149" y="661" type="curve" smooth="yes"/>
      <point x="149" y="699"/>
      <point x="124" y="717"/>
      <point x="93" y="717" type="curve" smooth="yes"/>
      <point x="69" y="717"/>
      <point x="52" y="704"/>
      <point x="45" y="690" type="curve"/>
      <point x="67" y="689" type="line"/>
      <point x="67" y="719" type="line" smooth="yes"/>
      <point x="66" y="753"/>
      <point x="85" y="780"/>
      <point x="131" y="780" type="curve" smooth="yes"/>
      <point x="147" y="780" type="line"/>
      <point x="147" y="841" type="line"/>
      <point x="133" y="841" type="line" smooth="yes"/>
      <point x="49" y="841"/>
      <point x="0" y="796"/>
      <point x="0" y="713" type="curve" smooth="yes"/>
      <point x="0" y="707" type="line" smooth="yes"/>
      <point x="0" y="637"/>
      <point x="32" y="599"/>
    </contour>
  </outline>
</glyph>
<glyph name="Germandbls" format="2">
  <advance width="1315"/>
  <unicode hex="1E9E"/>
  <outline>
    <contour>
      <point x="336" y="-18" type="curve" smooth="yes"/>
      <point x="516" y="-18"/>
      <point x="624" y="75"/>
      <point x="624" y="213" type="curve" smooth="yes"/>
      <point x="624" y="338"/>
      <point x="524" y="411"/>
      <point x="371" y="425" type="curve" smooth="yes"/>
      <point x="305" y="431" type="line" smooth="yes"/>
      <point x="232" y="437"/>
      <point x="198" y="477"/>
      <point x="198" y="524" type="curve" smooth="yes"/>
      <point x="198" y="583"/>
      <point x="240" y="635"/>
      <point x="329" y="635" type="curve" smooth="yes"/>
      <point x="419" y="635"/>
      <point x="465" y="578"/>
      <point x="465" y="519" type="curve"/>
      <point x="591" y="519" type="line"/>
      <point x="591" y="662"/>
      <point x="489" y="748"/>
      <point x="329" y="748" type="curve" smooth="yes"/>
      <point x="174" y="748"/>
      <point x="72" y="661"/>
      <point x="72" y="524" type="curve" smooth="yes"/>
      <point x="72" y="398"/>
      <point x="162" y="328"/>
      <point x="294" y="316" type="curve" smooth="yes"/>
      <point x="359" y="310" type="line" smooth="yes"/>
      <point x="453" y="301"/>
      <point x="497" y="264"/>
      <point x="497" y="213" type="curve" smooth="yes"/>
      <point x="497" y="148"/>
      <point x="444" y="95"/>
      <point x="336" y="95" type="curve" smooth="yes"/>
      <point x="214" y="95"/>
      <point x="170" y="162"/>
      <point x="170" y="219" type="curve"/>
      <point x="44" y="219" type="line"/>
      <point x="44" y="76"/>
      <point x="151" y="-18"/>
    </contour>
    <contour>
      <point x="984" y="-18" type="curve" smooth="yes"/>
      <point x="1164" y="-18"/>
      <point x="1269" y="75"/>
      <point x="1269" y="213" type="curve" smooth="yes"/>
      <point x="1269" y="339"/>
      <point x="1168" y="411"/>
      <point x="1016" y="425" type="curve" smooth="yes"/>
      <point x="948" y="431" type="line" smooth="yes"/>
      <point x="874" y="437"/>
      <point x="841" y="477"/>
      <point x="841" y="524" type="curve" smooth="yes"/>
      <point x="841" y="583"/>
      <point x="884" y="635"/>
      <point x="974" y="635" type="curve" smooth="yes"/>
      <point x="1064" y="635"/>
      <point x="1110" y="578"/>
      <point x="1110" y="519" type="curve"/>
      <point x="1236" y="519" type="line"/>
      <point x="1236" y="662"/>
      <point x="1135" y="748"/>
      <point x="974" y="748" type="curve" smooth="yes"/>
      <point x="818" y="748"/>
      <point x="714" y="661"/>
      <point x="714" y="524" type="curve" smooth="yes"/>
      <point x="714" y="398"/>
      <point x="804" y="327"/>
      <point x="937" y="316" type="curve" smooth="yes"/>
      <point x="1005" y="310" type="line" smooth="yes"/>
      <point x="1097" y="301"/>
      <point x="1143" y="265"/>
      <point x="1143" y="213" type="curve" smooth="yes"/>
      <point x="1143" y="148"/>
      <point x="1092" y="95"/>
      <point x="984" y="95" type="curve" smooth="yes"/>
      <point x="863" y="95"/>
      <point x="822" y="162"/>
      <point x="822" y="219" type="curve"/>
      <point x="696" y="219" type="line"/>
      <point x="696" y="76"/>
      <point x="801" y="-18"/>
    </contour>
  </outline>
</glyph>
<glyph name="quoteright" format="2">
  <advance width="256"/>
  <unicode hex="2019"/>
  <outline>
    <contour>
      <point x="44" y="409" type="line"/>
      <point x="58" y="409" type="line" smooth="yes"/>
      <point x="158" y="409"/>
      <point x="218" y="455"/>
      <point x="218" y="598" type="curve" smooth="yes"/>
      <point x="218" y="616" type="line" smooth="yes"/>
      <point x="218" y="711"/>
      <point x="176" y="739"/>
      <point x="130" y="739" type="curve" smooth="yes"/>
      <point x="81" y="739"/>
      <point x="54" y="706"/>
      <point x="54" y="663" type="curve" smooth="yes"/>
      <point x="54" y="616"/>
      <point x="85" y="589"/>
      <point x="127" y="589" type="curve" smooth="yes"/>
      <point x="144" y="589"/>
      <point x="163" y="593"/>
      <point x="172" y="599" type="curve"/>
      <point x="145" y="652" type="line"/>
      <point x="145" y="578" type="line" smooth="yes"/>
      <point x="145" y="506"/>
      <point x="122" y="479"/>
      <point x="63" y="479" type="curve" smooth="yes"/>
      <point x="44" y="479" type="line"/>
    </contour>
  </outline>
</glyph>
<glyph name="dagger" format="2">
  <advance width="566"/>
  <unicode hex="2020"/>
  <outline>
    <contour>
      <point x="225" y="-200" type="line"/>
      <point x="340" y="-200" type="line"/>
      <point x="340" y="365" type="line"/>
      <point x="225" y="365" type="line"/>
    </contour>
    <contour>
      <point x="44" y="441" type="line"/>
      <point x="522" y="441" type="line"/>
      <point x="522" y="538" type="line"/>
      <point x="44" y="538" type="line"/>
    </contour>
    <contour>
      <point x="225" y="504" type="line"/>
      <point x="340" y="504" type="line"/>
      <point x="340" y="730" type="line"/>
      <point x="225" y="730" type="line"/>
    </contour>
  </outline>
</glyph>
<glyph name="daggerdbl" format="2">
  <advance width="566"/>
  <unicode hex="2021"/>
  <outline>
    <contour>
      <point x="44" y="441" type="line"/>
      <point x="522" y="441" type="line"/>
      <point x="522" y="538" type="line"/>
      <point x="44" y="538" type="line"/>
    </contour>
    <contour>
      <point x="225" y="-200" type="line"/>
      <point x="340" y="-200" type="line"/>
      <point x="340" y="26" type="line"/>
      <point x="225" y="26" type="line"/>
    </contour>
    <contour>
      <point x="44" y="-8" type="line"/>
      <point x="522" y="-8" type="line"/>
      <point x="522" y="89" type="line"/>
      <point x="44" y="89" type="line"/>
    </contour>
    <contour>
      <point x="225" y="161" type="line"/>
      <point x="340" y="161" type="line"/>
      <point x="340" y="369" type="line"/>
      <point x="225" y="369" type="line"/>
    </contour>
    <contour>
      <point x="225" y="504" type="line"/>
      <point x="340" y="504" type="line"/>
      <point x="340" y="730" type="line"/>
      <point x="225" y="730" type="line"/>
    </contour>
  </outline>
</glyph>
<glyph name="perthousand" format="2">
  <advance width="1257"/>
  <unicode hex="2030"/>
  <outline>
    <contour>
      <point x="249" y="0" type="line"/>
      <point x="352" y="0" type="line"/>
      <point x="624" y="730" type="line"/>
      <point x="520" y="730" type="line"/>
    </contour>
    <contour>
      <point x="197" y="334" type="curve" smooth="yes"/>
      <point x="314" y="334"/>
      <point x="365" y="421"/>
      <point x="365" y="525" type="curve" smooth="yes"/>
      <point x="365" y="551" type="line" smooth="yes"/>
      <point x="365" y="662"/>
      <point x="310" y="743"/>
      <point x="197" y="743" type="curve" smooth="yes"/>
      <point x="84" y="743"/>
      <point x="29" y="662"/>
      <point x="29" y="551" type="curve" smooth="yes"/>
      <point x="29" y="525" type="line" smooth="yes"/>
      <point x="29" y="421"/>
      <point x="80" y="334"/>
    </contour>
    <contour>
      <point x="197" y="419" type="curve" smooth="yes"/>
      <point x="145" y="419"/>
      <point x="120" y="455"/>
      <point x="120" y="538" type="curve" smooth="yes"/>
      <point x="120" y="624"/>
      <point x="146" y="658"/>
      <point x="197" y="658" type="curve" smooth="yes"/>
      <point x="248" y="658"/>
      <point x="274" y="624"/>
      <point x="274" y="537" type="curve" smooth="yes"/>
      <point x="274" y="455"/>
      <point x="249" y="419"/>
    </contour>
    <contour>
      <point x="672" y="-13" type="curve" smooth="yes"/>
      <point x="789" y="-13"/>
      <point x="840" y="74"/>
      <point x="840" y="178" type="curve" smooth="yes"/>
      <point x="840" y="204" type="line" smooth="yes"/>
      <point x="840" y="314"/>
      <point x="785" y="395"/>
      <point x="672" y="395" type="curve" smooth="yes"/>
      <point x="559" y="395"/>
      <point x="504" y="314"/>
      <point x="504" y="204" type="curve" smooth="yes"/>
      <point x="504" y="178" type="line" smooth="yes"/>
      <point x="504" y="74"/>
      <point x="555" y="-13"/>
    </contour>
    <contour>
      <point x="672" y="71" type="curve" smooth="yes"/>
      <point x="620" y="71"/>
      <point x="595" y="108"/>
      <point x="595" y="191" type="curve" smooth="yes"/>
      <point x="595" y="277"/>
      <point x="621" y="311"/>
      <point x="672" y="311" type="curve" smooth="yes"/>
      <point x="722" y="311"/>
      <point x="749" y="277"/>
      <point x="749" y="190" type="curve" smooth="yes"/>
      <point x="749" y="108"/>
      <point x="723" y="71"/>
    </contour>
    <contour>
      <point x="1060" y="-13" type="curve" smooth="yes"/>
      <point x="1177" y="-13"/>
      <point x="1228" y="74"/>
      <point x="1228" y="178" type="curve" smooth="yes"/>
      <point x="1228" y="204" type="line" smooth="yes"/>
      <point x="1228" y="314"/>
      <point x="1173" y="395"/>
      <point x="1060" y="395" type="curve" smooth="yes"/>
      <point x="947" y="395"/>
      <point x="892" y="314"/>
      <point x="892" y="204" type="curve" smooth="yes"/>
      <point x="892" y="178" type="line" smooth="yes"/>
      <point x="892" y="74"/>
      <point x="943" y="-13"/>
    </contour>
    <contour>
      <point x="1060" y="71" type="curve" smooth="yes"/>
      <point x="1008" y="71"/>
      <point x="983" y="108"/>
      <point x="983" y="191" type="curve" smooth="yes"/>
      <point x="983" y="277"/>
      <point x="1009" y="311"/>
      <point x="1060" y="311" type="curve" smooth="yes"/>
      <point x="1111" y="311"/>
      <point x="1137" y="277"/>
      <point x="1137" y="190" type="curve" smooth="yes"/>
      <point x="1137" y="108"/>
      <point x="1112" y="71"/>
    </contour>
  </outline>
</glyph>
<glyph name="euro" format="2">
  <advance width="706"/>
  <unicode hex="20AC"/>
  <outline>
    <contour>
      <point x="403" y="-15" type="curve" smooth="yes"/>
      <point x="582" y="-15"/>
      <point x="666" y="79"/>
      <point x="672" y="216" type="curve"/>
      <point x="560" y="216" type="line"/>
      <point x="555" y="137"/>
      <point x="506" y="89"/>
      <point x="403" y="89" type="curve" smooth="yes"/>
      <point x="276" y="89"/>
      <point x="210" y="167"/>
      <point x="210" y="365" type="curve" smooth="yes"/>
      <point x="210" y="563"/>
      <point x="271" y="641"/>
      <point x="396" y="641" type="curve" smooth="yes"/>
      <point x="497" y="641"/>
      <point x="548" y="593"/>
      <point x="554" y="514" type="curve"/>
      <point x="666" y="514" type="line"/>
      <point x="660" y="650"/>
      <point x="575" y="745"/>
      <point x="396" y="745" type="curve" smooth="yes"/>
      <point x="200" y="745"/>
      <point x="97" y="620"/>
      <point x="97" y="372" type="curve" smooth="yes"/>
      <point x="97" y="358" type="line" smooth="yes"/>
      <point x="97" y="110"/>
      <point x="205" y="-15"/>
    </contour>
    <contour>
      <point x="15" y="244" type="line"/>
      <point x="455" y="244" type="line"/>
      <point x="455" y="317" type="line"/>
      <point x="15" y="317" type="line"/>
    </contour>
    <contour>
      <point x="33" y="396" type="line"/>
      <point x="473" y="396" type="line"/>
      <point x="473" y="469" type="line"/>
      <point x="33" y="469" type="line"/>
    </contour>
  </outline>
</glyph>
<glyph name="trademark" format="2">
  <advance width="880"/>
  <unicode hex="2122"/>
  <outline>
    <contour>
      <point x="391" y="334" type="line"/>
      <point x="466" y="334" type="line"/>
      <point x="466" y="674" type="line"/>
      <point x="448" y="673" type="line"/>
      <point x="560" y="402" type="line"/>
      <point x="654" y="402" type="line"/>
      <point x="766" y="673" type="line"/>
      <point x="747" y="674" type="line"/>
      <point x="747" y="334" type="line"/>
      <point x="827" y="334" type="line"/>
      <point x="827" y="730" type="line"/>
      <point x="720" y="730" type="line"/>
      <point x="612" y="469" type="line"/>
      <point x="606" y="469" type="line"/>
      <point x="498" y="730" type="line"/>
      <point x="391" y="730" type="line"/>
    </contour>
    <contour>
      <point x="136" y="334" type="line"/>
      <point x="220" y="334" type="line"/>
      <point x="220" y="669" type="line"/>
      <point x="136" y="669" type="line"/>
    </contour>
    <contour>
      <point x="19" y="659" type="line"/>
      <point x="337" y="659" type="line"/>
      <point x="337" y="730" type="line"/>
      <point x="19" y="730" type="line"/>
    </contour>
  </outline>
</glyph>
<glyph name="minus" format="2">
  <advance width="593"/>
  <unicode hex="2212"/>
  <outline>
    <contour>
      <point x="58" y="293" type="line"/>
      <point x="534" y="293" type="line"/>
      <point x="534" y="395" type="line"/>
      <point x="58" y="395" type="line"/>
    </contour>
  </outline>
</glyph>
<glyph name="lessequal" format="2">
  <advance width="590"/>
  <unicode hex="2264"/>
  <outline>
    <contour>
      <point x="73" y="31" type="line"/>
      <point x="520" y="31" type="line"/>
      <point x="520" y="130" type="line"/>
      <point x="73" y="130" type="line"/>
    </contour>
    <contour>
      <point x="520" y="194" type="line"/>
      <point x="520" y="296" type="line"/>
      <point x="73" y="408" type="line"/>
      <point x="73" y="317" type="line"/>
    </contour>
    <contour>
      <point x="73" y="373" type="line"/>
      <point x="520" y="486" type="line"/>
      <point x="520" y="587" type="line"/>
      <point x="73" y="465" type="line"/>
    </contour>
    <contour>
      <point x="139" y="348" type="line"/>
      <point x="169" y="348" type="line"/>
      <point x="169" y="430" type="line"/>
      <point x="139" y="430" type="line"/>
    </contour>
  </outline>
</glyph>
<glyph name="greaterequal" format="2">
  <advance width="593"/>
  <unicode hex="2265"/>
  <outline>
    <contour>
      <point x="73" y="31" type="line"/>
      <point x="520" y="31" type="line"/>
      <point x="520" y="130" type="line"/>
      <point x="73" y="130" type="line"/>
    </contour>
    <contour>
      <point x="73" y="194" type="line"/>
      <point x="520" y="317" type="line"/>
      <point x="520" y="409" type="line"/>
      <point x="73" y="295" type="line"/>
    </contour>
    <contour>
      <point x="520" y="373" type="line"/>
      <point x="520" y="465" type="line"/>
      <point x="73" y="587" type="line"/>
      <point x="73" y="486" type="line"/>
    </contour>
    <contour>
      <point x="424" y="351" type="line"/>
      <point x="454" y="351" type="line"/>
      <point x="454" y="433" type="line"/>
      <point x="424" y="433" type="line"/>
    </contour>
  </outline>
</glyph>
<glyph name="sora" format="2">
  <advance width="830"/>
  <unicode hex="E000"/>
  <outline>
    <contour>
      <point x="153" y="-8" type="line"/>
      <point x="400" y="344" type="line"/>
      <point x="380" y="339" type="line"/>
      <point x="446" y="339" type="line"/>
      <point x="428" y="344" type="line"/>
      <point x="674" y="-8" type="line"/>
      <point x="769" y="56" type="line"/>
      <point x="479" y="460" type="line"/>
      <point x="352" y="460" type="line"/>
      <point x="61" y="56" type="line"/>
    </contour>
    <contour>
      <point x="77" y="460" type="line"/>
      <point x="754" y="460" type="line"/>
      <point x="754" y="542" type="line"/>
      <point x="77" y="542" type="line"/>
    </contour>
    <contour>
      <point x="356" y="505" type="line"/>
      <point x="474" y="505" type="line"/>
      <point x="474" y="674" type="line"/>
      <point x="356" y="674" type="line"/>
    </contour>
    <contour>
      <point x="77" y="648" type="line"/>
      <point x="754" y="648" type="line"/>
      <point x="754" y="730" type="line"/>
      <point x="77" y="730" type="line"/>
    </contour>
  </outline>
</glyph>
<glyph name="fl" format="2">
  <advance width="669"/>
  <unicode hex="FB02"/>
  <outline>
    <contour>
      <point x="96" y="0" type="line"/>
      <point x="214" y="0" type="line"/>
      <point x="214" y="564" type="line" smooth="yes"/>
      <point x="214" y="607"/>
      <point x="238" y="632"/>
      <point x="282" y="632" type="curve" smooth="yes"/>
      <point x="342" y="632" type="line"/>
      <point x="342" y="730" type="line"/>
      <point x="293" y="730" type="line" smooth="yes"/>
      <point x="163" y="730"/>
      <point x="96" y="673"/>
      <point x="96" y="550" type="curve" smooth="yes"/>
    </contour>
    <contour>
      <point x="26" y="437" type="line"/>
      <point x="346" y="437" type="line"/>
      <point x="346" y="530" type="line"/>
      <point x="26" y="530" type="line"/>
    </contour>
    <contour>
      <point x="459" y="0" type="line"/>
      <point x="585" y="0" type="line"/>
      <point x="585" y="730" type="line"/>
      <point x="459" y="730" type="line"/>
    </contour>
    <contour>
      <point x="394" y="634" type="line"/>
      <point x="585" y="634" type="line"/>
      <point x="585" y="730" type="line"/>
      <point x="394" y="730" type="line"/>
    </contour>
  </outline>
</glyph>
<glyph name="J.salt" format="2">
  <advance width="595"/>
  <anchor x="278" y="0" name="bottom"/>
  <anchor x="444" y="730" name="top"/>
  <outline>
    <contour>
      <point x="276" y="-21" type="curve" smooth="yes"/>
      <point x="418" y="-21"/>
      <point x="508" y="63"/>
      <point x="508" y="221" type="curve" smooth="yes"/>
      <point x="508" y="730" type="line"/>
      <point x="380" y="730" type="line"/>
      <point x="380" y="202" type="line" smooth="yes"/>
      <point x="380" y="137"/>
      <point x="339" y="99"/>
      <point x="276" y="99" type="curve" smooth="yes"/>
      <point x="213" y="99"/>
      <point x="173" y="137"/>
      <point x="173" y="202" type="curve" smooth="yes"/>
      <point x="173" y="324" type="line"/>
      <point x="44" y="324" type="line"/>
      <point x="44" y="221" type="line" smooth="yes"/>
      <point x="44" y="63"/>
      <point x="133" y="-21"/>
    </contour>
  </outline>
</glyph>
<glyph name="P.salt" format="2">
  <advance width="673"/>
  <outline>
    <contour>
      <point x="204" y="289" type="line"/>
      <point x="394" y="289" type="line" smooth="yes"/>
      <point x="555" y="289"/>
      <point x="651" y="366"/>
      <point x="651" y="504" type="curve" smooth="yes"/>
      <point x="651" y="520" type="line" smooth="yes"/>
      <point x="651" y="658"/>
      <point x="554" y="735"/>
      <point x="394" y="735" type="curve" smooth="yes"/>
      <point x="204" y="735" type="line"/>
      <point x="204" y="623" type="line"/>
      <point x="408" y="623" type="line" smooth="yes"/>
      <point x="482" y="623"/>
      <point x="521" y="581"/>
      <point x="521" y="512" type="curve" smooth="yes"/>
      <point x="521" y="443"/>
      <point x="483" y="401"/>
      <point x="408" y="401" type="curve" smooth="yes"/>
      <point x="204" y="401" type="line"/>
    </contour>
    <contour>
      <point x="95" y="0" type="line"/>
      <point x="224" y="0" type="line"/>
      <point x="224" y="735" type="line"/>
      <point x="95" y="735" type="line"/>
    </contour>
  </outline>
</glyph>
<glyph name="Q.salt" format="2">
  <advance width="865"/>
  <guideline x="431" y="360" angle="90.0"/>
  <anchor x="433" y="0" name="bottom"/>
  <anchor x="433" y="360" name="center"/>
  <anchor x="563" y="10" name="ogonek"/>
  <anchor x="433" y="730" name="top"/>
  <outline>
    <contour>
      <point x="652" y="-74" type="line"/>
      <point x="776" y="-74" type="line"/>
      <point x="505" y="297" type="line"/>
      <point x="382" y="297" type="line"/>
    </contour>
    <component base="O"/>
  </outline>
</glyph>
<glyph name="R.salt" format="2">
  <advance width="724"/>
  <anchor x="378" y="0" name="bottom"/>
  <anchor x="348" y="730" name="top"/>
  <outline>
    <contour>
      <point x="95" y="0" type="line"/>
      <point x="224" y="0" type="line"/>
      <point x="224" y="735" type="line"/>
      <point x="95" y="735" type="line"/>
    </contour>
    <contour>
      <point x="535" y="0" type="line"/>
      <point x="678" y="0" type="line"/>
      <point x="529" y="325" type="line"/>
      <point x="389" y="325" type="line"/>
    </contour>
    <contour>
      <point x="204" y="292" type="line"/>
      <point x="398" y="292" type="line" smooth="yes"/>
      <point x="561" y="292"/>
      <point x="655" y="367"/>
      <point x="655" y="506" type="curve" smooth="yes"/>
      <point x="655" y="522" type="line" smooth="yes"/>
      <point x="655" y="660"/>
      <point x="560" y="735"/>
      <point x="398" y="735" type="curve" smooth="yes"/>
      <point x="204" y="735" type="line"/>
      <point x="204" y="623" type="line"/>
      <point x="413" y="623" type="line" smooth="yes"/>
      <point x="487" y="623"/>
      <point x="525" y="580"/>
      <point x="525" y="511" type="curve" smooth="yes"/>
      <point x="525" y="441"/>
      <point x="488" y="399"/>
      <point x="413" y="399" type="curve" smooth="yes"/>
      <point x="204" y="399" type="line"/>
    </contour>
  </outline>
</glyph>
<glyph name="asterisk.part" format="2">
  <advance width="204"/>
  <guideline x="0" y="470" angle="90.0"/>
  <guideline x="0" y="470" angle="44.99999999999999"/>
  <guideline x="0" y="470" angle="135.0"/>
  <outline>
    <contour>
      <point x="152" y="308" type="line"/>
      <point x="204" y="400" type="line"/>
      <point x="77" y="453" type="line"/>
      <point x="77" y="487" type="line"/>
      <point x="204" y="540" type="line"/>
      <point x="152" y="632" type="line"/>
      <point x="0" y="522" type="line"/>
      <point x="0" y="418" type="line"/>
    </contour>
  </outline>
</glyph>
<glyph name="brevecomb.case" format="2">
  <anchor x="178" y="730" name="_top"/>
  <anchor x="179" y="958" name="top"/>
  <outline>
    <contour>
      <point x="178" y="779" type="curve" smooth="yes"/>
      <point x="297" y="779"/>
      <point x="351" y="854"/>
      <point x="356" y="958" type="curve"/>
      <point x="271" y="958" type="line"/>
      <point x="269" y="904"/>
      <point x="241" y="863"/>
      <point x="178" y="863" type="curve" smooth="yes"/>
      <point x="116" y="863"/>
      <point x="92" y="904"/>
      <point x="90" y="958" type="curve"/>
      <point x="0" y="958" type="line"/>
      <point x="5" y="854"/>
      <point x="59" y="779"/>
    </contour>
  </outline>
</glyph>
<glyph name="caroncomb.alt" format="2">
  <anchor x="0" y="540" name="_topright"/>
  <outline>
    <contour>
      <point x="70" y="573" type="line"/>
      <point x="161" y="573" type="line"/>
      <point x="175" y="822" type="line"/>
      <point x="70" y="822" type="line"/>
    </contour>
  </outline>
</glyph>
<glyph name="caroncomb.case" format="2">
  <anchor x="206" y="730" name="_top"/>
  <anchor x="206" y="958" name="top"/>
  <outline>
    <contour>
      <point x="131" y="787" type="line"/>
      <point x="279" y="787" type="line"/>
      <point x="403" y="958" type="line"/>
      <point x="290" y="958" type="line"/>
      <point x="215" y="848" type="line"/>
      <point x="198" y="848" type="line"/>
      <point x="116" y="958" type="line"/>
      <point x="0" y="958" type="line"/>
    </contour>
  </outline>
</glyph>
<glyph name="circumflexcomb.case" format="2">
  <anchor x="202" y="730" name="_top"/>
  <anchor x="202" y="958" name="top"/>
  <outline>
    <contour>
      <point x="0" y="787" type="line"/>
      <point x="113" y="787" type="line"/>
      <point x="194" y="896" type="line"/>
      <point x="211" y="896" type="line"/>
      <point x="294" y="787" type="line"/>
      <point x="410" y="787" type="line"/>
      <point x="279" y="958" type="line"/>
      <point x="129" y="958" type="line"/>
    </contour>
  </outline>
</glyph>
<glyph name="currency.tnum" format="2">
  <advance width="659"/>
  <outline>
    <contour>
      <point x="330" y="141" type="curve" smooth="yes"/>
      <point x="472" y="141"/>
      <point x="552" y="251"/>
      <point x="552" y="359" type="curve" smooth="yes"/>
      <point x="552" y="375" type="line" smooth="yes"/>
      <point x="552" y="484"/>
      <point x="472" y="592"/>
      <point x="330" y="592" type="curve" smooth="yes"/>
      <point x="187" y="592"/>
      <point x="107" y="484"/>
      <point x="107" y="375" type="curve" smooth="yes"/>
      <point x="107" y="359" type="line" smooth="yes"/>
      <point x="107" y="251"/>
      <point x="187" y="141"/>
    </contour>
    <contour>
      <point x="116" y="80" type="line"/>
      <point x="222" y="187" type="line"/>
      <point x="149" y="261" type="line"/>
      <point x="42" y="154" type="line"/>
    </contour>
    <contour>
      <point x="149" y="472" type="line"/>
      <point x="222" y="546" type="line"/>
      <point x="116" y="652" type="line"/>
      <point x="42" y="578" type="line"/>
    </contour>
    <contour>
      <point x="330" y="241" type="curve" smooth="yes"/>
      <point x="256" y="241"/>
      <point x="216" y="294"/>
      <point x="216" y="367" type="curve" smooth="yes"/>
      <point x="216" y="442"/>
      <point x="258" y="492"/>
      <point x="330" y="492" type="curve" smooth="yes"/>
      <point x="402" y="492"/>
      <point x="443" y="442"/>
      <point x="443" y="367" type="curve" smooth="yes"/>
      <point x="443" y="294"/>
      <point x="404" y="241"/>
    </contour>
    <contour>
      <point x="543" y="80" type="line"/>
      <point x="617" y="154" type="line"/>
      <point x="510" y="261" type="line"/>
      <point x="437" y="187" type="line"/>
    </contour>
    <contour>
      <point x="510" y="472" type="line"/>
      <point x="617" y="578" type="line"/>
      <point x="543" y="652" type="line"/>
      <point x="437" y="546" type="line"/>
    </contour>
  </outline>
</glyph>
<glyph name="divide.tnum" format="2">
  <advance width="659"/>
  <outline>
    <contour>
      <point x="80" y="293" type="line"/>
      <point x="579" y="293" type="line"/>
      <point x="579" y="395" type="line"/>
      <point x="80" y="395" type="line"/>
    </contour>
    <contour>
      <point x="267" y="75" type="line"/>
      <point x="392" y="75" type="line"/>
      <point x="392" y="203" type="line"/>
      <point x="267" y="203" type="line"/>
    </contour>
    <contour>
      <point x="267" y="485" type="line"/>
      <point x="392" y="485" type="line"/>
      <point x="392" y="613" type="line"/>
      <point x="267" y="613" type="line"/>
    </contour>
  </outline>
</glyph>
<glyph name="dollar.tnum" format="2">
  <advance width="659"/>
  <outline>
    <contour>
      <point x="342" y="-2" type="curve" smooth="yes"/>
      <point x="513" y="-2"/>
      <point x="613" y="79"/>
      <point x="613" y="209" type="curve" smooth="yes"/>
      <point x="613" y="335"/>
      <point x="518" y="407"/>
      <point x="371" y="421" type="curve" smooth="yes"/>
      <point x="312" y="426" type="line" smooth="yes"/>
      <point x="238" y="432"/>
      <point x="206" y="476"/>
      <point x="206" y="525" type="curve" smooth="yes"/>
      <point x="206" y="582"/>
      <point x="252" y="625"/>
      <point x="333" y="625" type="curve" smooth="yes"/>
      <point x="424" y="625"/>
      <point x="464" y="566"/>
      <point x="464" y="503" type="curve"/>
      <point x="581" y="503" type="line"/>
      <point x="581" y="646"/>
      <point x="490" y="728"/>
      <point x="333" y="728" type="curve" smooth="yes"/>
      <point x="182" y="728"/>
      <point x="88" y="656"/>
      <point x="88" y="525" type="curve" smooth="yes"/>
      <point x="88" y="398"/>
      <point x="170" y="330"/>
      <point x="301" y="318" type="curve" smooth="yes"/>
      <point x="360" y="313" type="line" smooth="yes"/>
      <point x="451" y="304"/>
      <point x="495" y="264"/>
      <point x="495" y="209" type="curve" smooth="yes"/>
      <point x="495" y="150"/>
      <point x="444" y="101"/>
      <point x="342" y="101" type="curve" smooth="yes"/>
      <point x="226" y="101"/>
      <point x="184" y="168"/>
      <point x="184" y="231" type="curve"/>
      <point x="68" y="231" type="line"/>
      <point x="68" y="89"/>
      <point x="162" y="-2"/>
    </contour>
    <contour>
      <point x="286" y="-129" type="line"/>
      <point x="393" y="-129" type="line"/>
      <point x="393" y="17" type="line"/>
      <point x="286" y="17" type="line"/>
    </contour>
    <contour>
      <point x="282" y="681" type="line"/>
      <point x="389" y="681" type="line"/>
      <point x="389" y="827" type="line"/>
      <point x="282" y="827" type="line"/>
    </contour>
  </outline>
</glyph>
<glyph name="euro.tnum" format="2">
  <advance width="659"/>
  <outline>
    <contour>
      <point x="389" y="-15" type="curve" smooth="yes"/>
      <point x="565" y="-15"/>
      <point x="642" y="81"/>
      <point x="648" y="216" type="curve"/>
      <point x="536" y="216" type="line"/>
      <point x="531" y="138"/>
      <point x="487" y="89"/>
      <point x="389" y="89" type="curve" smooth="yes"/>
      <point x="266" y="89"/>
      <point x="206" y="169"/>
      <point x="206" y="365" type="curve" smooth="yes"/>
      <point x="206" y="561"/>
      <point x="261" y="641"/>
      <point x="381" y="641" type="curve" smooth="yes"/>
      <point x="478" y="641"/>
      <point x="522" y="592"/>
      <point x="528" y="514" type="curve"/>
      <point x="640" y="514" type="line"/>
      <point x="634" y="649"/>
      <point x="556" y="745"/>
      <point x="381" y="745" type="curve" smooth="yes"/>
      <point x="190" y="745"/>
      <point x="93" y="618"/>
      <point x="93" y="372" type="curve" smooth="yes"/>
      <point x="93" y="358" type="line" smooth="yes"/>
      <point x="93" y="112"/>
      <point x="195" y="-15"/>
    </contour>
    <contour>
      <point x="9" y="244" type="line"/>
      <point x="439" y="244" type="line"/>
      <point x="439" y="317" type="line"/>
      <point x="9" y="317" type="line"/>
    </contour>
    <contour>
      <point x="27" y="396" type="line"/>
      <point x="457" y="396" type="line"/>
      <point x="457" y="469" type="line"/>
      <point x="27" y="469" type="line"/>
    </contour>
  </outline>
</glyph>
<glyph name="f_f" format="2">
  <advance width="729"/>
  <outline>
    <contour>
      <point x="96" y="0" type="line"/>
      <point x="214" y="0" type="line"/>
      <point x="214" y="576" type="line" smooth="yes"/>
      <point x="214" y="619"/>
      <point x="238" y="644"/>
      <point x="282" y="644" type="curve" smooth="yes"/>
      <point x="346" y="644" type="line"/>
      <point x="346" y="743" type="line"/>
      <point x="293" y="743" type="line" smooth="yes"/>
      <point x="163" y="743"/>
      <point x="96" y="686"/>
      <point x="96" y="563" type="curve" smooth="yes"/>
    </contour>
    <contour>
      <point x="446" y="0" type="line"/>
      <point x="565" y="0" type="line"/>
      <point x="565" y="570" type="line" smooth="yes"/>
      <point x="565" y="613"/>
      <point x="589" y="638"/>
      <point x="632" y="638" type="curve" smooth="yes"/>
      <point x="710" y="638" type="line"/>
      <point x="710" y="737" type="line"/>
      <point x="644" y="737" type="line" smooth="yes"/>
      <point x="514" y="737"/>
      <point x="446" y="680"/>
      <point x="446" y="557" type="curve" smooth="yes"/>
    </contour>
    <contour>
      <point x="26" y="439" type="line"/>
      <point x="720" y="439" type="line"/>
      <point x="720" y="532" type="line"/>
      <point x="26" y="532" type="line"/>
    </contour>
  </outline>
</glyph>
<glyph name="f_f.salt" format="2">
  <advance width="744"/>
  <outline>
    <contour>
      <point x="96" y="0" type="line"/>
      <point x="214" y="0" type="line"/>
      <point x="214" y="604" type="line" smooth="yes"/>
      <point x="214" y="629"/>
      <point x="227" y="650"/>
      <point x="253" y="650" type="curve" smooth="yes"/>
      <point x="280" y="650"/>
      <point x="294" y="629"/>
      <point x="294" y="604" type="curve"/>
      <point x="390" y="604" type="line"/>
      <point x="390" y="687"/>
      <point x="338" y="742"/>
      <point x="246" y="742" type="curve" smooth="yes"/>
      <point x="153" y="742"/>
      <point x="96" y="685"/>
      <point x="96" y="600" type="curve" smooth="yes"/>
    </contour>
    <contour>
      <point x="455" y="0" type="line"/>
      <point x="574" y="0" type="line"/>
      <point x="574" y="610" type="line" smooth="yes"/>
      <point x="574" y="636"/>
      <point x="588" y="656"/>
      <point x="616" y="656" type="curve" smooth="yes"/>
      <point x="645" y="656"/>
      <point x="660" y="636"/>
      <point x="660" y="610" type="curve"/>
      <point x="760" y="610" type="line"/>
      <point x="760" y="694"/>
      <point x="706" y="748"/>
      <point x="611" y="748" type="curve" smooth="yes"/>
      <point x="515" y="748"/>
      <point x="455" y="693"/>
      <point x="455" y="606" type="curve" smooth="yes"/>
    </contour>
    <contour>
      <point x="26" y="437" type="line"/>
      <point x="727" y="437" type="line"/>
      <point x="727" y="530" type="line"/>
      <point x="26" y="530" type="line"/>
    </contour>
  </outline>
</glyph>
<glyph name="f_f_i" format="2">
  <advance width="1027"/>
  <outline>
    <contour>
      <point x="96" y="0" type="line"/>
      <point x="214" y="0" type="line"/>
      <point x="214" y="582" type="line" smooth="yes"/>
      <point x="214" y="624"/>
      <point x="238" y="649"/>
      <point x="282" y="649" type="curve" smooth="yes"/>
      <point x="346" y="649" type="line"/>
      <point x="346" y="748" type="line"/>
      <point x="293" y="748" type="line" smooth="yes"/>
      <point x="163" y="748"/>
      <point x="96" y="691"/>
      <point x="96" y="568" type="curve" smooth="yes"/>
    </contour>
    <contour>
      <point x="446" y="0" type="line"/>
      <point x="565" y="0" type="line"/>
      <point x="565" y="576" type="line" smooth="yes"/>
      <point x="565" y="618"/>
      <point x="589" y="643"/>
      <point x="632" y="643" type="curve" smooth="yes"/>
      <point x="707" y="643" type="line"/>
      <point x="707" y="742" type="line"/>
      <point x="644" y="742" type="line" smooth="yes"/>
      <point x="514" y="742"/>
      <point x="446" y="685"/>
      <point x="446" y="562" type="curve" smooth="yes"/>
    </contour>
    <contour>
      <point x="816" y="0" type="line"/>
      <point x="942" y="0" type="line"/>
      <point x="942" y="540" type="line"/>
      <point x="816" y="540" type="line"/>
    </contour>
    <contour>
      <point x="26" y="445" type="line"/>
      <point x="695" y="445" type="line"/>
      <point x="695" y="538" type="line"/>
      <point x="26" y="538" type="line"/>
    </contour>
    <contour>
      <point x="744" y="445" type="line"/>
      <point x="942" y="445" type="line"/>
      <point x="942" y="540" type="line"/>
      <point x="744" y="540" type="line"/>
    </contour>
    <contour>
      <point x="859" y="612" type="curve" smooth="yes"/>
      <point x="910" y="612"/>
      <point x="934" y="641"/>
      <point x="934" y="682" type="curve" smooth="yes"/>
      <point x="934" y="724"/>
      <point x="910" y="753"/>
      <point x="859" y="753" type="curve" smooth="yes"/>
      <point x="808" y="753"/>
      <point x="785" y="724"/>
      <point x="785" y="682" type="curve" smooth="yes"/>
      <point x="785" y="641"/>
      <point x="808" y="612"/>
    </contour>
  </outline>
</glyph>
<glyph name="f_f_i.salt" format="2">
  <advance width="1036"/>
  <outline>
    <contour>
      <point x="96" y="0" type="line"/>
      <point x="214" y="0" type="line"/>
      <point x="214" y="605" type="line" smooth="yes"/>
      <point x="214" y="630"/>
      <point x="227" y="650"/>
      <point x="253" y="650" type="curve" smooth="yes"/>
      <point x="279" y="650"/>
      <point x="294" y="630"/>
      <point x="294" y="605" type="curve"/>
      <point x="390" y="605" type="line"/>
      <point x="390" y="688"/>
      <point x="338" y="742"/>
      <point x="246" y="742" type="curve" smooth="yes"/>
      <point x="153" y="742"/>
      <point x="96" y="687"/>
      <point x="96" y="601" type="curve" smooth="yes"/>
    </contour>
    <contour>
      <point x="456" y="0" type="line"/>
      <point x="574" y="0" type="line"/>
      <point x="574" y="611" type="line" smooth="yes"/>
      <point x="574" y="637"/>
      <point x="589" y="656"/>
      <point x="616" y="656" type="curve" smooth="yes"/>
      <point x="643" y="656"/>
      <point x="660" y="637"/>
      <point x="660" y="611" type="curve"/>
      <point x="756" y="611" type="line"/>
      <point x="756" y="695"/>
      <point x="703" y="748"/>
      <point x="609" y="748" type="curve" smooth="yes"/>
      <point x="513" y="748"/>
      <point x="456" y="693"/>
      <point x="456" y="607" type="curve" smooth="yes"/>
    </contour>
    <contour>
      <point x="825" y="0" type="line"/>
      <point x="951" y="0" type="line"/>
      <point x="951" y="540" type="line"/>
      <point x="825" y="540" type="line"/>
    </contour>
    <contour>
      <point x="26" y="443" type="line"/>
      <point x="704" y="443" type="line"/>
      <point x="704" y="536" type="line"/>
      <point x="26" y="536" type="line"/>
    </contour>
    <contour>
      <point x="755" y="445" type="line"/>
      <point x="951" y="445" type="line"/>
      <point x="951" y="540" type="line"/>
      <point x="755" y="540" type="line"/>
    </contour>
    <contour>
      <point x="875" y="613" type="curve" smooth="yes"/>
      <point x="926" y="613"/>
      <point x="949" y="642"/>
      <point x="949" y="683" type="curve" smooth="yes"/>
      <point x="949" y="724"/>
      <point x="926" y="753"/>
      <point x="875" y="753" type="curve" smooth="yes"/>
      <point x="824" y="753"/>
      <point x="801" y="724"/>
      <point x="801" y="683" type="curve" smooth="yes"/>
      <point x="801" y="642"/>
      <point x="824" y="613"/>
    </contour>
  </outline>
</glyph>
<glyph name="f_f_j" format="2">
  <advance width="1028"/>
  <outline>
    <contour>
      <point x="96" y="0" type="line"/>
      <point x="214" y="0" type="line"/>
      <point x="214" y="582" type="line" smooth="yes"/>
      <point x="214" y="624"/>
      <point x="238" y="649"/>
      <point x="282" y="649" type="curve" smooth="yes"/>
      <point x="346" y="649" type="line"/>
      <point x="346" y="748" type="line"/>
      <point x="293" y="748" type="line" smooth="yes"/>
      <point x="163" y="748"/>
      <point x="96" y="691"/>
      <point x="96" y="568" type="curve" smooth="yes"/>
    </contour>
    <contour>
      <point x="446" y="0" type="line"/>
      <point x="565" y="0" type="line"/>
      <point x="565" y="576" type="line" smooth="yes"/>
      <point x="565" y="618"/>
      <point x="589" y="643"/>
      <point x="632" y="643" type="curve" smooth="yes"/>
      <point x="697" y="643" type="line"/>
      <point x="697" y="742" type="line"/>
      <point x="644" y="742" type="line" smooth="yes"/>
      <point x="514" y="742"/>
      <point x="446" y="685"/>
      <point x="446" y="562" type="curve" smooth="yes"/>
    </contour>
    <contour>
      <point x="701" y="-201" type="line"/>
      <point x="737" y="-201" type="line" smooth="yes"/>
      <point x="886" y="-201"/>
      <point x="946" y="-150"/>
      <point x="946" y="-5" type="curve" smooth="yes"/>
      <point x="946" y="540" type="line"/>
      <point x="825" y="540" type="line"/>
      <point x="825" y="-15" type="line" smooth="yes"/>
      <point x="825" y="-64"/>
      <point x="797" y="-92"/>
      <point x="747" y="-92" type="curve" smooth="yes"/>
      <point x="701" y="-92" type="line"/>
    </contour>
    <contour>
      <point x="26" y="445" type="line"/>
      <point x="703" y="445" type="line"/>
      <point x="703" y="538" type="line"/>
      <point x="26" y="538" type="line"/>
    </contour>
    <contour>
      <point x="752" y="445" type="line"/>
      <point x="946" y="445" type="line"/>
      <point x="946" y="540" type="line"/>
      <point x="752" y="540" type="line"/>
    </contour>
    <contour>
      <point x="863" y="617" type="curve" smooth="yes"/>
      <point x="914" y="617"/>
      <point x="938" y="646"/>
      <point x="938" y="688" type="curve" smooth="yes"/>
      <point x="938" y="729"/>
      <point x="914" y="758"/>
      <point x="863" y="758" type="curve" smooth="yes"/>
      <point x="812" y="758"/>
      <point x="789" y="729"/>
      <point x="789" y="688" type="curve" smooth="yes"/>
      <point x="789" y="646"/>
      <point x="812" y="617"/>
    </contour>
  </outline>
</glyph>
<glyph name="f_f_j.salt" format="2">
  <advance width="1037"/>
  <outline>
    <contour>
      <point x="96" y="0" type="line"/>
      <point x="214" y="0" type="line"/>
      <point x="214" y="608" type="line" smooth="yes"/>
      <point x="214" y="631"/>
      <point x="228" y="650"/>
      <point x="253" y="650" type="curve" smooth="yes"/>
      <point x="279" y="650"/>
      <point x="294" y="631"/>
      <point x="294" y="608" type="curve"/>
      <point x="390" y="608" type="line"/>
      <point x="390" y="691"/>
      <point x="338" y="742"/>
      <point x="246" y="742" type="curve" smooth="yes"/>
      <point x="153" y="742"/>
      <point x="96" y="689"/>
      <point x="96" y="604" type="curve" smooth="yes"/>
    </contour>
    <contour>
      <point x="456" y="0" type="line"/>
      <point x="574" y="0" type="line"/>
      <point x="574" y="611" type="line" smooth="yes"/>
      <point x="574" y="636"/>
      <point x="589" y="656"/>
      <point x="616" y="656" type="curve" smooth="yes"/>
      <point x="643" y="656"/>
      <point x="658" y="636"/>
      <point x="658" y="611" type="curve"/>
      <point x="754" y="611" type="line"/>
      <point x="754" y="694"/>
      <point x="702" y="748"/>
      <point x="608" y="748" type="curve" smooth="yes"/>
      <point x="513" y="748"/>
      <point x="456" y="693"/>
      <point x="456" y="607" type="curve" smooth="yes"/>
    </contour>
    <contour>
      <point x="710" y="-201" type="line"/>
      <point x="747" y="-201" type="line" smooth="yes"/>
      <point x="895" y="-201"/>
      <point x="956" y="-150"/>
      <point x="956" y="-5" type="curve" smooth="yes"/>
      <point x="956" y="540" type="line"/>
      <point x="834" y="540" type="line"/>
      <point x="834" y="-15" type="line" smooth="yes"/>
      <point x="834" y="-64"/>
      <point x="807" y="-92"/>
      <point x="757" y="-92" type="curve" smooth="yes"/>
      <point x="710" y="-92" type="line"/>
    </contour>
    <contour>
      <point x="26" y="443" type="line"/>
      <point x="713" y="443" type="line"/>
      <point x="713" y="536" type="line"/>
      <point x="26" y="536" type="line"/>
    </contour>
    <contour>
      <point x="763" y="445" type="line"/>
      <point x="956" y="445" type="line"/>
      <point x="956" y="540" type="line"/>
      <point x="763" y="540" type="line"/>
    </contour>
    <contour>
      <point x="878" y="618" type="curve" smooth="yes"/>
      <point x="929" y="618"/>
      <point x="952" y="647"/>
      <point x="952" y="688" type="curve" smooth="yes"/>
      <point x="952" y="729"/>
      <point x="929" y="758"/>
      <point x="878" y="758" type="curve" smooth="yes"/>
      <point x="827" y="758"/>
      <point x="804" y="729"/>
      <point x="804" y="688" type="curve" smooth="yes"/>
      <point x="804" y="647"/>
      <point x="827" y="618"/>
    </contour>
  </outline>
</glyph>
<glyph name="f_f_l.salt" format="2">
  <advance width="1051"/>
  <outline>
    <contour>
      <point x="96" y="0" type="line"/>
      <point x="214" y="0" type="line"/>
      <point x="214" y="604" type="line" smooth="yes"/>
      <point x="214" y="629"/>
      <point x="227" y="650"/>
      <point x="253" y="650" type="curve" smooth="yes"/>
      <point x="280" y="650"/>
      <point x="294" y="629"/>
      <point x="294" y="604" type="curve"/>
      <point x="390" y="604" type="line"/>
      <point x="390" y="687"/>
      <point x="338" y="742"/>
      <point x="246" y="742" type="curve" smooth="yes"/>
      <point x="153" y="742"/>
      <point x="96" y="685"/>
      <point x="96" y="600" type="curve" smooth="yes"/>
    </contour>
    <contour>
      <point x="456" y="0" type="line"/>
      <point x="574" y="0" type="line"/>
      <point x="574" y="610" type="line" smooth="yes"/>
      <point x="574" y="635"/>
      <point x="587" y="656"/>
      <point x="614" y="656" type="curve" smooth="yes"/>
      <point x="641" y="656"/>
      <point x="656" y="635"/>
      <point x="656" y="610" type="curve"/>
      <point x="752" y="610" type="line"/>
      <point x="752" y="693"/>
      <point x="700" y="748"/>
      <point x="607" y="748" type="curve" smooth="yes"/>
      <point x="512" y="748"/>
      <point x="456" y="691"/>
      <point x="456" y="606" type="curve" smooth="yes"/>
    </contour>
    <contour>
      <point x="963" y="-6" type="curve" smooth="yes"/>
      <point x="1019" y="-6" type="line"/>
      <point x="1019" y="102" type="line"/>
      <point x="966" y="102" type="line" smooth="yes"/>
      <point x="941" y="102"/>
      <point x="929" y="115"/>
      <point x="929" y="139" type="curve" smooth="yes"/>
      <point x="929" y="730" type="line"/>
      <point x="803" y="730" type="line"/>
      <point x="803" y="142" type="line" smooth="yes"/>
      <point x="803" y="36"/>
      <point x="853" y="-6"/>
    </contour>
    <contour>
      <point x="26" y="437" type="line"/>
      <point x="720" y="437" type="line"/>
      <point x="720" y="530" type="line"/>
      <point x="26" y="530" type="line"/>
    </contour>
  </outline>
</glyph>
<glyph name="fi.salt" format="2">
  <advance width="675"/>
  <outline>
    <contour>
      <point x="96" y="0" type="line"/>
      <point x="214" y="0" type="line"/>
      <point x="214" y="610" type="line" smooth="yes"/>
      <point x="214" y="635"/>
      <point x="228" y="656"/>
      <point x="256" y="656" type="curve" smooth="yes"/>
      <point x="284" y="656"/>
      <point x="299" y="635"/>
      <point x="299" y="610" type="curve"/>
      <point x="395" y="610" type="line"/>
      <point x="395" y="694"/>
      <point x="343" y="748"/>
      <point x="249" y="748" type="curve" smooth="yes"/>
      <point x="153" y="748"/>
      <point x="96" y="692"/>
      <point x="96" y="606" type="curve" smooth="yes"/>
    </contour>
    <contour>
      <point x="26" y="443" type="line"/>
      <point x="344" y="443" type="line"/>
      <point x="344" y="536" type="line"/>
      <point x="26" y="536" type="line"/>
    </contour>
    <contour>
      <point x="464" y="0" type="line"/>
      <point x="590" y="0" type="line"/>
      <point x="590" y="540" type="line"/>
      <point x="464" y="540" type="line"/>
    </contour>
    <contour>
      <point x="394" y="445" type="line"/>
      <point x="590" y="445" type="line"/>
      <point x="590" y="540" type="line"/>
      <point x="394" y="540" type="line"/>
    </contour>
    <contour>
      <point x="515" y="613" type="curve" smooth="yes"/>
      <point x="565" y="613"/>
      <point x="588" y="642"/>
      <point x="588" y="683" type="curve" smooth="yes"/>
      <point x="588" y="724"/>
      <point x="565" y="753"/>
      <point x="515" y="753" type="curve" smooth="yes"/>
      <point x="464" y="753"/>
      <point x="441" y="724"/>
      <point x="441" y="683" type="curve" smooth="yes"/>
      <point x="441" y="642"/>
      <point x="464" y="613"/>
    </contour>
  </outline>
</glyph>
<glyph name="four.tnum" format="2">
  <advance width="659"/>
  <outline>
    <contour>
      <point x="43" y="158" type="line"/>
      <point x="634" y="158" type="line"/>
      <point x="634" y="259" type="line"/>
      <point x="178" y="259" type="line"/>
      <point x="167" y="278" type="line"/>
      <point x="426" y="682" type="line"/>
      <point x="331" y="749" type="line"/>
      <point x="43" y="300" type="line"/>
    </contour>
    <contour>
      <point x="426" y="0" type="line"/>
      <point x="544" y="0" type="line"/>
      <point x="544" y="521" type="line"/>
      <point x="426" y="521" type="line"/>
    </contour>
  </outline>
</glyph>
<glyph name="guilsinglleft.case" format="2">
  <advance width="341"/>
  <outline>
    <contour>
      <point x="163" y="141" type="line"/>
      <point x="301" y="141" type="line"/>
      <point x="159" y="353" type="line"/>
      <point x="159" y="379" type="line"/>
      <point x="301" y="591" type="line"/>
      <point x="169" y="591" type="line"/>
      <point x="30" y="386" type="line"/>
      <point x="30" y="340" type="line"/>
    </contour>
  </outline>
</glyph>
<glyph name="lslash.salt" format="2">
  <advance width="316"/>
  <anchor x="174" y="0" name="bottom"/>
  <anchor x="162" y="480" name="center"/>
  <anchor x="131" y="730" name="top"/>
  <anchor x="188" y="534" name="topright"/>
  <outline>
    <contour>
      <point x="13" y="213" type="line"/>
      <point x="115" y="271" type="line"/>
      <point x="115" y="363" type="line"/>
      <point x="13" y="306" type="line"/>
    </contour>
    <contour>
      <point x="170" y="299" type="line"/>
      <point x="277" y="358" type="line"/>
      <point x="277" y="451" type="line"/>
      <point x="170" y="391" type="line"/>
    </contour>
    <component base="l.salt"/>
  </outline>
</glyph>
<glyph name="macroncomb.case" format="2">
  <anchor x="180" y="730" name="_top"/>
  <anchor x="180" y="954" name="top"/>
  <outline>
    <contour>
      <point x="0" y="823" type="line"/>
      <point x="359" y="823" type="line"/>
      <point x="359" y="912" type="line"/>
      <point x="0" y="912" type="line"/>
    </contour>
  </outline>
</glyph>
<glyph name="minus.tnum" format="2">
  <advance width="659"/>
  <outline>
    <contour>
      <point x="80" y="293" type="line"/>
      <point x="579" y="293" type="line"/>
      <point x="579" y="395" type="line"/>
      <point x="80" y="395" type="line"/>
    </contour>
  </outline>
</glyph>
<glyph name="ogonekcomb.case" format="2">
  <anchor x="230" y="10" name="_ogonek"/>
  <outline>
    <contour>
      <point x="186" y="-255" type="curve" smooth="yes"/>
      <point x="208" y="-255"/>
      <point x="232" y="-252"/>
      <point x="246" y="-247" type="curve"/>
      <point x="246" y="-155" type="line"/>
      <point x="233" y="-161"/>
      <point x="214" y="-164"/>
      <point x="198" y="-164" type="curve" smooth="yes"/>
      <point x="162" y="-164"/>
      <point x="143" y="-141"/>
      <point x="143" y="-113" type="curve" smooth="yes"/>
      <point x="143" y="-83"/>
      <point x="164" y="-51"/>
      <point x="199" y="-25" type="curve" smooth="yes"/>
      <point x="231" y="0" type="line"/>
      <point x="182" y="58" type="line"/>
      <point x="151" y="35" type="line" smooth="yes"/>
      <point x="88" y="-11"/>
      <point x="50" y="-65"/>
      <point x="50" y="-129" type="curve" smooth="yes"/>
      <point x="50" y="-202"/>
      <point x="106" y="-255"/>
    </contour>
  </outline>
</glyph>
<glyph name="one.tnum" format="2">
  <advance width="659"/>
  <outline>
    <contour>
      <point x="289" y="0" type="line"/>
      <point x="416" y="0" type="line"/>
      <point x="416" y="730" type="line"/>
      <point x="119" y="730" type="line"/>
      <point x="119" y="620" type="line"/>
      <point x="333" y="620" type="line"/>
      <point x="289" y="654" type="line"/>
    </contour>
    <contour>
      <point x="107" y="0" type="line"/>
      <point x="579" y="0" type="line"/>
      <point x="579" y="110" type="line"/>
      <point x="107" y="110" type="line"/>
    </contour>
  </outline>
</glyph>
<glyph name="parenleft.case" format="2">
  <advance width="384"/>
  <outline>
    <contour>
      <point x="227" y="-118" type="curve"/>
      <point x="370" y="-118" type="line"/>
      <point x="247" y="18"/>
      <point x="188" y="158"/>
      <point x="188" y="347" type="curve" smooth="yes"/>
      <point x="188" y="537"/>
      <point x="259" y="673"/>
      <point x="370" y="806" type="curve"/>
      <point x="229" y="806" type="line"/>
      <point x="131" y="691"/>
      <point x="64" y="556"/>
      <point x="64" y="347" type="curve" smooth="yes"/>
      <point x="64" y="139"/>
      <point x="127" y="1"/>
    </contour>
  </outline>
</glyph>
<glyph name="plus.tnum" format="2">
  <advance width="659"/>
  <outline>
    <contour>
      <point x="275" y="81" type="line"/>
      <point x="384" y="81" type="line"/>
      <point x="384" y="607" type="line"/>
      <point x="275" y="607" type="line"/>
    </contour>
    <contour>
      <point x="80" y="293" type="line"/>
      <point x="579" y="293" type="line"/>
      <point x="579" y="395" type="line"/>
      <point x="80" y="395" type="line"/>
    </contour>
  </outline>
</glyph>
<glyph name="r.salt" format="2">
  <advance width="434"/>
  <note>
r / design an alternative version with a round hook. Look at lettera (based on Olivetti Candia)
</note>
  <anchor x="140" y="0" name="bottom"/>
  <anchor x="255" y="540" name="top"/>
  <outline>
    <contour>
      <point x="83" y="0" type="line"/>
      <point x="209" y="0" type="line"/>
      <point x="209" y="340" type="line" smooth="yes"/>
      <point x="209" y="404"/>
      <point x="242" y="437"/>
      <point x="306" y="437" type="curve" smooth="yes"/>
      <point x="422" y="437" type="line"/>
      <point x="422" y="547" type="line"/>
      <point x="334" y="547" type="line" smooth="yes"/>
      <point x="237" y="547"/>
      <point x="177" y="491"/>
      <point x="177" y="347" type="curve"/>
      <point x="179" y="347" type="line"/>
      <point x="179" y="540" type="line"/>
      <point x="83" y="540" type="line"/>
    </contour>
  </outline>
</glyph>
<glyph name="ringcomb.case" format="2">
  <anchor x="124" y="730" name="_top"/>
  <anchor x="124" y="961" name="top"/>
  <outline>
    <contour>
      <point x="124" y="765" type="curve" smooth="yes"/>
      <point x="200" y="765"/>
      <point x="248" y="813"/>
      <point x="248" y="875" type="curve" smooth="yes"/>
      <point x="248" y="938"/>
      <point x="200" y="985"/>
      <point x="124" y="985" type="curve" smooth="yes"/>
      <point x="49" y="985"/>
      <point x="0" y="938"/>
      <point x="0" y="875" type="curve" smooth="yes"/>
      <point x="0" y="813"/>
      <point x="49" y="765"/>
    </contour>
    <contour>
      <point x="124" y="827" type="curve" smooth="yes"/>
      <point x="90" y="827"/>
      <point x="70" y="847"/>
      <point x="70" y="875" type="curve" smooth="yes"/>
      <point x="70" y="903"/>
      <point x="90" y="924"/>
      <point x="124" y="924" type="curve" smooth="yes"/>
      <point x="159" y="924"/>
      <point x="179" y="903"/>
      <point x="179" y="875" type="curve" smooth="yes"/>
      <point x="179" y="847"/>
      <point x="159" y="827"/>
    </contour>
  </outline>
</glyph>
<glyph name="seven.salt" format="2">
  <advance width="565"/>
  <outline>
    <contour>
      <point x="183" y="0" type="line"/>
      <point x="308" y="0" type="line"/>
      <point x="308" y="136" type="line" smooth="yes"/>
      <point x="308" y="326"/>
      <point x="370" y="459"/>
      <point x="536" y="566" type="curve"/>
      <point x="536" y="730" type="line"/>
      <point x="19" y="730" type="line"/>
      <point x="19" y="621" type="line"/>
      <point x="409" y="621" type="line"/>
      <point x="415" y="601" type="line"/>
      <point x="266" y="505"/>
      <point x="183" y="345"/>
      <point x="183" y="136" type="curve" smooth="yes"/>
    </contour>
  </outline>
</glyph>
<glyph name="seven.tnum" format="2">
  <advance width="659"/>
  <outline>
    <contour>
      <point x="177" y="0" type="line"/>
      <point x="312" y="0" type="line"/>
      <point x="600" y="620" type="line"/>
      <point x="600" y="730" type="line"/>
      <point x="66" y="730" type="line"/>
      <point x="66" y="624" type="line"/>
      <point x="458" y="624" type="line"/>
      <point x="466" y="612" type="line"/>
    </contour>
    <contour>
      <point x="66" y="499" type="line"/>
      <point x="171" y="499" type="line"/>
      <point x="171" y="730" type="line"/>
      <point x="66" y="730" type="line"/>
    </contour>
  </outline>
</glyph>
<glyph name="seven.tnum.salt" format="2">
  <advance width="659"/>
  <outline>
    <contour>
      <point x="228" y="0" type="line"/>
      <point x="353" y="0" type="line"/>
      <point x="353" y="136" type="line" smooth="yes"/>
      <point x="353" y="328"/>
      <point x="420" y="459"/>
      <point x="587" y="565" type="curve"/>
      <point x="587" y="730" type="line"/>
      <point x="61" y="730" type="line"/>
      <point x="61" y="621" type="line"/>
      <point x="460" y="621" type="line"/>
      <point x="466" y="601" type="line"/>
      <point x="316" y="506"/>
      <point x="228" y="347"/>
      <point x="228" y="136" type="curve" smooth="yes"/>
    </contour>
  </outline>
</glyph>
<glyph name="six.tnum" format="2">
  <advance width="659"/>
  <outline>
    <contour>
      <point x="348" y="-21" type="curve" smooth="yes"/>
      <point x="516" y="-21"/>
      <point x="616" y="84"/>
      <point x="616" y="234" type="curve" smooth="yes"/>
      <point x="616" y="377"/>
      <point x="530" y="478"/>
      <point x="373" y="478" type="curve" smooth="yes"/>
      <point x="241" y="478"/>
      <point x="153" y="394"/>
      <point x="151" y="248" type="curve"/>
      <point x="179" y="248" type="line"/>
      <point x="179" y="366" type="line" smooth="yes"/>
      <point x="179" y="533"/>
      <point x="232" y="628"/>
      <point x="402" y="628" type="curve" smooth="yes"/>
      <point x="454" y="628"/>
      <point x="494" y="624"/>
      <point x="537" y="620" type="curve"/>
      <point x="537" y="727" type="line"/>
      <point x="495" y="732"/>
      <point x="456" y="735"/>
      <point x="407" y="735" type="curve" smooth="yes"/>
      <point x="184" y="735"/>
      <point x="62" y="609"/>
      <point x="62" y="378" type="curve" smooth="yes"/>
      <point x="62" y="332" type="line" smooth="yes"/>
      <point x="62" y="140"/>
      <point x="136" y="-21"/>
    </contour>
    <contour>
      <point x="346" y="88" type="curve" smooth="yes"/>
      <point x="240" y="88"/>
      <point x="194" y="149"/>
      <point x="194" y="233" type="curve" smooth="yes"/>
      <point x="194" y="325"/>
      <point x="262" y="377"/>
      <point x="348" y="377" type="curve" smooth="yes"/>
      <point x="446" y="377"/>
      <point x="494" y="321"/>
      <point x="494" y="233" type="curve" smooth="yes"/>
      <point x="494" y="150"/>
      <point x="437" y="88"/>
    </contour>
  </outline>
</glyph>
<glyph name="sora.tnum" format="2">
  <advance width="659"/>
  <outline>
    <contour>
      <point x="114" y="-4" type="line"/>
      <point x="326" y="359" type="line"/>
      <point x="288" y="350" type="line"/>
      <point x="365" y="350" type="line"/>
      <point x="330" y="359" type="line"/>
      <point x="541" y="-4" type="line"/>
      <point x="642" y="53" type="line"/>
      <point x="399" y="460" type="line"/>
      <point x="261" y="460" type="line"/>
      <point x="17" y="53" type="line"/>
    </contour>
    <contour>
      <point x="39" y="460" type="line"/>
      <point x="620" y="460" type="line"/>
      <point x="620" y="542" type="line"/>
      <point x="39" y="542" type="line"/>
    </contour>
    <contour>
      <point x="270" y="522" type="line"/>
      <point x="389" y="522" type="line"/>
      <point x="389" y="674" type="line"/>
      <point x="270" y="674" type="line"/>
    </contour>
    <contour>
      <point x="39" y="648" type="line"/>
      <point x="620" y="648" type="line"/>
      <point x="620" y="730" type="line"/>
      <point x="39" y="730" type="line"/>
    </contour>
  </outline>
</glyph>
<glyph name="sterling.tnum" format="2">
  <advance width="659"/>
  <outline>
    <contour>
      <point x="142" y="0" type="line"/>
      <point x="256" y="0" type="line"/>
      <point x="256" y="483" type="line" smooth="yes"/>
      <point x="256" y="588"/>
      <point x="306" y="635"/>
      <point x="399" y="635" type="curve" smooth="yes"/>
      <point x="438" y="635"/>
      <point x="523" y="630"/>
      <point x="561" y="625" type="curve"/>
      <point x="561" y="729" type="line"/>
      <point x="524" y="734"/>
      <point x="442" y="739"/>
      <point x="400" y="739" type="curve" smooth="yes"/>
      <point x="239" y="739"/>
      <point x="142" y="648"/>
      <point x="142" y="490" type="curve" smooth="yes"/>
    </contour>
    <contour>
      <point x="67" y="0" type="line"/>
      <point x="542" y="0" type="line"/>
      <point x="542" y="98" type="line"/>
      <point x="67" y="98" type="line"/>
    </contour>
    <contour>
      <point x="73" y="315" type="line"/>
      <point x="496" y="315" type="line"/>
      <point x="496" y="399" type="line"/>
      <point x="73" y="399" type="line"/>
    </contour>
    <contour>
      <point x="506" y="0" type="line"/>
      <point x="607" y="0" type="line"/>
      <point x="607" y="190" type="line"/>
      <point x="506" y="190" type="line"/>
    </contour>
  </outline>
</glyph>
<glyph name="three.tnum" format="2">
  <advance width="659"/>
  <outline>
    <contour>
      <point x="325" y="-19" type="curve" smooth="yes"/>
      <point x="493" y="-19"/>
      <point x="593" y="86"/>
      <point x="593" y="210" type="curve" smooth="yes"/>
      <point x="593" y="224" type="line" smooth="yes"/>
      <point x="593" y="350"/>
      <point x="492" y="445"/>
      <point x="324" y="445" type="curve" smooth="yes"/>
      <point x="296" y="445"/>
      <point x="257" y="438"/>
      <point x="233" y="429" type="curve"/>
      <point x="313" y="419" type="line"/>
      <point x="559" y="588" type="line"/>
      <point x="559" y="730" type="line"/>
      <point x="87" y="730" type="line"/>
      <point x="87" y="621" type="line"/>
      <point x="417" y="621" type="line"/>
      <point x="426" y="603" type="line"/>
      <point x="171" y="423" type="line"/>
      <point x="234" y="323" type="line"/>
      <point x="257" y="340"/>
      <point x="290" y="351"/>
      <point x="326" y="351" type="curve" smooth="yes"/>
      <point x="412" y="351"/>
      <point x="469" y="297"/>
      <point x="469" y="219" type="curve" smooth="yes"/>
      <point x="469" y="141"/>
      <point x="413" y="90"/>
      <point x="325" y="90" type="curve" smooth="yes"/>
      <point x="237" y="90"/>
      <point x="181" y="139"/>
      <point x="181" y="217" type="curve"/>
      <point x="57" y="217" type="line"/>
      <point x="57" y="86"/>
      <point x="157" y="-19"/>
    </contour>
  </outline>
</glyph>
<glyph name="tildecomb.case" format="2">
  <anchor x="185" y="730" name="_top"/>
  <anchor x="185" y="954" name="top"/>
  <outline>
    <contour>
      <point x="272" y="800" type="curve" smooth="yes"/>
      <point x="323" y="800"/>
      <point x="360" y="821"/>
      <point x="382" y="849" type="curve"/>
      <point x="361" y="932" type="line"/>
      <point x="342" y="909"/>
      <point x="310" y="892"/>
      <point x="273" y="892" type="curve" smooth="yes"/>
      <point x="210" y="892"/>
      <point x="188" y="942"/>
      <point x="110" y="942" type="curve" smooth="yes"/>
      <point x="58" y="942"/>
      <point x="21" y="920"/>
      <point x="0" y="893" type="curve"/>
      <point x="21" y="809" type="line"/>
      <point x="40" y="833"/>
      <point x="71" y="849"/>
      <point x="108" y="849" type="curve" smooth="yes"/>
      <point x="172" y="849"/>
      <point x="193" y="800"/>
    </contour>
  </outline>
</glyph>
<glyph name="two.tnum" format="2">
  <advance width="659"/>
  <outline>
    <contour>
      <point x="85" y="0" type="line"/>
      <point x="595" y="0" type="line"/>
      <point x="595" y="110" type="line"/>
      <point x="179" y="110" type="line"/>
      <point x="210" y="69" type="line"/>
      <point x="210" y="143" type="line" smooth="yes"/>
      <point x="210" y="182"/>
      <point x="225" y="200"/>
      <point x="279" y="224" type="curve" smooth="yes"/>
      <point x="408" y="281" type="line" smooth="yes"/>
      <point x="525" y="332"/>
      <point x="590" y="402"/>
      <point x="590" y="511" type="curve" smooth="yes"/>
      <point x="590" y="525" type="line" smooth="yes"/>
      <point x="590" y="645"/>
      <point x="503" y="751"/>
      <point x="333" y="751" type="curve" smooth="yes"/>
      <point x="161" y="751"/>
      <point x="76" y="645"/>
      <point x="76" y="513" type="curve"/>
      <point x="200" y="513" type="line"/>
      <point x="200" y="594"/>
      <point x="249" y="642"/>
      <point x="333" y="642" type="curve" smooth="yes"/>
      <point x="417" y="642"/>
      <point x="466" y="594"/>
      <point x="466" y="518" type="curve" smooth="yes"/>
      <point x="466" y="451"/>
      <point x="432" y="409"/>
      <point x="366" y="379" type="curve" smooth="yes"/>
      <point x="237" y="323" type="line" smooth="yes"/>
      <point x="125" y="274"/>
      <point x="85" y="225"/>
      <point x="85" y="135" type="curve" smooth="yes"/>
    </contour>
  </outline>
</glyph>
<glyph name="zero.tnum" format="2">
  <advance width="659"/>
  <outline>
    <contour>
      <point x="330" y="-21" type="curve" smooth="yes"/>
      <point x="522" y="-21"/>
      <point x="603" y="127"/>
      <point x="603" y="341" type="curve" smooth="yes"/>
      <point x="603" y="387" type="line" smooth="yes"/>
      <point x="603" y="610"/>
      <point x="512" y="751"/>
      <point x="330" y="751" type="curve" smooth="yes"/>
      <point x="147" y="751"/>
      <point x="56" y="610"/>
      <point x="56" y="387" type="curve" smooth="yes"/>
      <point x="56" y="341" type="line" smooth="yes"/>
      <point x="56" y="127"/>
      <point x="137" y="-21"/>
    </contour>
    <contour>
      <point x="330" y="95" type="curve" smooth="yes"/>
      <point x="226" y="95"/>
      <point x="183" y="173"/>
      <point x="183" y="365" type="curve" smooth="yes"/>
      <point x="183" y="561"/>
      <point x="228" y="635"/>
      <point x="330" y="635" type="curve" smooth="yes"/>
      <point x="431" y="635"/>
      <point x="476" y="561"/>
      <point x="476" y="363" type="curve" smooth="yes"/>
      <point x="476" y="173"/>
      <point x="433" y="95"/>
    </contour>
  </outline>
</glyph>
